G04 Layer: TopLayer*
G04 EasyEDA v6.5.50, 2025-07-23 08:09:46*
G04 fd94b24a4d154d9d8ede188550dba9a9,10c0a84da6c54f53babc60b4471cdfa3,10*
G04 Gerber Generator version 0.2*
G04 Scale: 100 percent, Rotated: No, Reflected: No *
G04 Dimensions in millimeters *
G04 leading zeros omitted , absolute positions ,4 integer and 5 decimal *
%FSLAX45Y45*%
%MOMM*%

%AMMACRO1*21,1,$1,$2,0,0,$3*%
%ADD10C,0.2540*%
%ADD11C,0.3000*%
%ADD12R,1.0000X1.2500*%
%ADD13C,0.3000*%
%ADD14R,0.9000X0.8000*%
%ADD15MACRO1,0.864X0.8065X-90.0000*%
%ADD16R,0.4000X0.2200*%
%ADD17R,0.2200X0.4000*%
%ADD18R,0.2800X0.4000*%
%ADD19C,0.6200*%
%ADD20C,0.0102*%

%LPD*%
G36*
X2688437Y-4335424D02*
G01*
X2676855Y-4336084D01*
X2665374Y-4337507D01*
X2653995Y-4339793D01*
X2642819Y-4342841D01*
X2631897Y-4346702D01*
X2621280Y-4351274D01*
X2610967Y-4356608D01*
X2601112Y-4362653D01*
X2591663Y-4369358D01*
X2582722Y-4376724D01*
X2574340Y-4384751D01*
X2566517Y-4393285D01*
X2559354Y-4402378D01*
X2552801Y-4411929D01*
X2546959Y-4421936D01*
X2544267Y-4427067D01*
X2539542Y-4437634D01*
X2537409Y-4443018D01*
X2533802Y-4454042D01*
X2530957Y-4465269D01*
X2528925Y-4476648D01*
X2527655Y-4488180D01*
X2527249Y-4499762D01*
X2527655Y-4511344D01*
X2528874Y-4522825D01*
X2529738Y-4528566D01*
X2532176Y-4539894D01*
X2535377Y-4551019D01*
X2539339Y-4561890D01*
X2544064Y-4572457D01*
X2549550Y-4582668D01*
X2555697Y-4592472D01*
X2562555Y-4601819D01*
X2566212Y-4606340D01*
X2574036Y-4614875D01*
X2582418Y-4622901D01*
X2591308Y-4630318D01*
X2600706Y-4637024D01*
X2610612Y-4643120D01*
X2620873Y-4648454D01*
X2631490Y-4653076D01*
X2642412Y-4656988D01*
X2647746Y-4656429D01*
X2652115Y-4653229D01*
X2655062Y-4648504D01*
X2656128Y-4643272D01*
X2656128Y-4621174D01*
X2645308Y-4622800D01*
X2635808Y-4622952D01*
X2627426Y-4621885D01*
X2620213Y-4619802D01*
X2614015Y-4617059D01*
X2608884Y-4613808D01*
X2604668Y-4610354D01*
X2601366Y-4607001D01*
X2598877Y-4603902D01*
X2596235Y-4599686D01*
X2594813Y-4595876D01*
X2592019Y-4589830D01*
X2590342Y-4586986D01*
X2586380Y-4581601D01*
X2581706Y-4576826D01*
X2579166Y-4574692D01*
X2572867Y-4568596D01*
X2573832Y-4565700D01*
X2577642Y-4564786D01*
X2579928Y-4564786D01*
X2582672Y-4565091D01*
X2588056Y-4566462D01*
X2593086Y-4568698D01*
X2597708Y-4571796D01*
X2601722Y-4575556D01*
X2608630Y-4585055D01*
X2612694Y-4589119D01*
X2617216Y-4592370D01*
X2622042Y-4594809D01*
X2627020Y-4596587D01*
X2631998Y-4597704D01*
X2636977Y-4598314D01*
X2641701Y-4598466D01*
X2646121Y-4598212D01*
X2650083Y-4597654D01*
X2653436Y-4596892D01*
X2656128Y-4596028D01*
X2655925Y-4589526D01*
X2656230Y-4586274D01*
X2656789Y-4583074D01*
X2658668Y-4576876D01*
X2659938Y-4573930D01*
X2652318Y-4572355D01*
X2645105Y-4570526D01*
X2638196Y-4568393D01*
X2631694Y-4565954D01*
X2625547Y-4563211D01*
X2619806Y-4560214D01*
X2614422Y-4556912D01*
X2609392Y-4553356D01*
X2604719Y-4549597D01*
X2600502Y-4545533D01*
X2596642Y-4541215D01*
X2593136Y-4536694D01*
X2590088Y-4531969D01*
X2587396Y-4526991D01*
X2585110Y-4521809D01*
X2583281Y-4516475D01*
X2581808Y-4510887D01*
X2580741Y-4505147D01*
X2580132Y-4499203D01*
X2579928Y-4488891D01*
X2580589Y-4480458D01*
X2582113Y-4472127D01*
X2584500Y-4463999D01*
X2587752Y-4456176D01*
X2591765Y-4448708D01*
X2596540Y-4441698D01*
X2602026Y-4435246D01*
X2599334Y-4429404D01*
X2597505Y-4423257D01*
X2596489Y-4416907D01*
X2596388Y-4410506D01*
X2597099Y-4404156D01*
X2598674Y-4397959D01*
X2601112Y-4392015D01*
X2602585Y-4389170D01*
X2604312Y-4386478D01*
X2608224Y-4386630D01*
X2615996Y-4387697D01*
X2619857Y-4388561D01*
X2627325Y-4390948D01*
X2634488Y-4394200D01*
X2641244Y-4398264D01*
X2644394Y-4400550D01*
X2650337Y-4405731D01*
X2653080Y-4408576D01*
X2663088Y-4405630D01*
X2673350Y-4403648D01*
X2678531Y-4402988D01*
X2688996Y-4402378D01*
X2699410Y-4402378D01*
X2709824Y-4402886D01*
X2720136Y-4404258D01*
X2730347Y-4406392D01*
X2735376Y-4407814D01*
X2738120Y-4405020D01*
X2744114Y-4400042D01*
X2750616Y-4395724D01*
X2757576Y-4392218D01*
X2764891Y-4389475D01*
X2772511Y-4387596D01*
X2780233Y-4386630D01*
X2784144Y-4386478D01*
X2787294Y-4392015D01*
X2789682Y-4397908D01*
X2791307Y-4404106D01*
X2792069Y-4410456D01*
X2792069Y-4416806D01*
X2791256Y-4423156D01*
X2790545Y-4426254D01*
X2788462Y-4432300D01*
X2787192Y-4435246D01*
X2792526Y-4441748D01*
X2797200Y-4448759D01*
X2801112Y-4456226D01*
X2804261Y-4464050D01*
X2806547Y-4472178D01*
X2807970Y-4480509D01*
X2808579Y-4488891D01*
X2808325Y-4499203D01*
X2807665Y-4505147D01*
X2806649Y-4510887D01*
X2805176Y-4516475D01*
X2803296Y-4521809D01*
X2801010Y-4526991D01*
X2798368Y-4531969D01*
X2795270Y-4536694D01*
X2791815Y-4541215D01*
X2787954Y-4545533D01*
X2783687Y-4549597D01*
X2779064Y-4553356D01*
X2774035Y-4556912D01*
X2768650Y-4560214D01*
X2762859Y-4563211D01*
X2756712Y-4565954D01*
X2750210Y-4568393D01*
X2743352Y-4570526D01*
X2736088Y-4572355D01*
X2728518Y-4573930D01*
X2730855Y-4579975D01*
X2732176Y-4586274D01*
X2732532Y-4592777D01*
X2732328Y-4596028D01*
X2732430Y-4644948D01*
X2733243Y-4648301D01*
X2734919Y-4651298D01*
X2737256Y-4653788D01*
X2740101Y-4655667D01*
X2743403Y-4656734D01*
X2746806Y-4656988D01*
X2757728Y-4652721D01*
X2768295Y-4647742D01*
X2773476Y-4644999D01*
X2783484Y-4638903D01*
X2793034Y-4632096D01*
X2802077Y-4624679D01*
X2810560Y-4616602D01*
X2818485Y-4607966D01*
X2825750Y-4598822D01*
X2832354Y-4589119D01*
X2838246Y-4579010D01*
X2843428Y-4568494D01*
X2847848Y-4557674D01*
X2851505Y-4546549D01*
X2854299Y-4535170D01*
X2856331Y-4523638D01*
X2857550Y-4512005D01*
X2857957Y-4500321D01*
X2857500Y-4488586D01*
X2856992Y-4482744D01*
X2855264Y-4471162D01*
X2854147Y-4465421D01*
X2851251Y-4454093D01*
X2847543Y-4442968D01*
X2843072Y-4432147D01*
X2837840Y-4421682D01*
X2831846Y-4411624D01*
X2828645Y-4406747D01*
X2821635Y-4397349D01*
X2813964Y-4388459D01*
X2805734Y-4380179D01*
X2801416Y-4376216D01*
X2792323Y-4368850D01*
X2782722Y-4362094D01*
X2772664Y-4356100D01*
X2762250Y-4350766D01*
X2751480Y-4346244D01*
X2740355Y-4342434D01*
X2729077Y-4339437D01*
X2717546Y-4337304D01*
X2711754Y-4336491D01*
X2700070Y-4335576D01*
G37*
G36*
X2682595Y-4759604D02*
G01*
X2682443Y-4759960D01*
X2671673Y-4760874D01*
X2659430Y-4762855D01*
X2650134Y-4765090D01*
X2642108Y-4767376D01*
X2632913Y-4770628D01*
X2630017Y-4771847D01*
X2629509Y-4771847D01*
X2623159Y-4774742D01*
X2612999Y-4779924D01*
X2604871Y-4784699D01*
X2593644Y-4792319D01*
X2582519Y-4801412D01*
X2576372Y-4807254D01*
X2570429Y-4813452D01*
X2563469Y-4821580D01*
X2555217Y-4832807D01*
X2579522Y-4832807D01*
X2579674Y-4832248D01*
X2589377Y-4821682D01*
X2599588Y-4812284D01*
X2608376Y-4805629D01*
X2618943Y-4798771D01*
X2624124Y-4795875D01*
X2631998Y-4792014D01*
X2638704Y-4789271D01*
X2638907Y-4789576D01*
X2632608Y-4798364D01*
X2628188Y-4805781D01*
X2621330Y-4818938D01*
X2618587Y-4825085D01*
X2618232Y-4826254D01*
X2617571Y-4827473D01*
X2616962Y-4829606D01*
X2615996Y-4831740D01*
X2613558Y-4838903D01*
X2612847Y-4840274D01*
X2611374Y-4840173D01*
X2592679Y-4836363D01*
X2579776Y-4833061D01*
X2579522Y-4832807D01*
X2555217Y-4832807D01*
X2548748Y-4843272D01*
X2632760Y-4843272D01*
X2632760Y-4842510D01*
X2636926Y-4831334D01*
X2641803Y-4821174D01*
X2647188Y-4811420D01*
X2651963Y-4804308D01*
X2657297Y-4797755D01*
X2661361Y-4793437D01*
X2667660Y-4788052D01*
X2672232Y-4784953D01*
X2677464Y-4782210D01*
X2682494Y-4780381D01*
X2682697Y-4781092D01*
X2682621Y-4846269D01*
X2702052Y-4846269D01*
X2702052Y-4780889D01*
X2702306Y-4780381D01*
X2706928Y-4782159D01*
X2707436Y-4782159D01*
X2713431Y-4785410D01*
X2719038Y-4789576D01*
X2745892Y-4789576D01*
X2746095Y-4789271D01*
X2750718Y-4791202D01*
X2751074Y-4791202D01*
X2761945Y-4796586D01*
X2772562Y-4802936D01*
X2777947Y-4806746D01*
X2785160Y-4812284D01*
X2789224Y-4815840D01*
X2796946Y-4823206D01*
X2805938Y-4833315D01*
X2805836Y-4833823D01*
X2804922Y-4834280D01*
X2788259Y-4838141D01*
X2773324Y-4840833D01*
X2772105Y-4840833D01*
X2771698Y-4840478D01*
X2771698Y-4839817D01*
X2769616Y-4833721D01*
X2767838Y-4829606D01*
X2766415Y-4825593D01*
X2762554Y-4816906D01*
X2757474Y-4807254D01*
X2754325Y-4801920D01*
X2745892Y-4789576D01*
X2719038Y-4789576D01*
X2723438Y-4793437D01*
X2727909Y-4798212D01*
X2732836Y-4804308D01*
X2737561Y-4811420D01*
X2741980Y-4819192D01*
X2748178Y-4832197D01*
X2752394Y-4843170D01*
X2751988Y-4843576D01*
X2749397Y-4843932D01*
X2726740Y-4845659D01*
X2702509Y-4846675D01*
X2702052Y-4846269D01*
X2682595Y-4846320D01*
X2682443Y-4846523D01*
X2653690Y-4845202D01*
X2632760Y-4843272D01*
X2548748Y-4843272D01*
X2546045Y-4848047D01*
X2539542Y-4861814D01*
X2539542Y-4862322D01*
X2537764Y-4866589D01*
X2534412Y-4876546D01*
X2532126Y-4884775D01*
X2529890Y-4895596D01*
X2528620Y-4903978D01*
X2527655Y-4914747D01*
X2547112Y-4914747D01*
X2547467Y-4908956D01*
X2548077Y-4904130D01*
X2548585Y-4901895D01*
X2548585Y-4900828D01*
X2551176Y-4888992D01*
X2554224Y-4878324D01*
X2558897Y-4865979D01*
X2564739Y-4854295D01*
X2567584Y-4849774D01*
X2582113Y-4853736D01*
X2599029Y-4857597D01*
X2599842Y-4857597D01*
X2607259Y-4859070D01*
X2607564Y-4859680D01*
X2607483Y-4860137D01*
X2777337Y-4860137D01*
X2777642Y-4859680D01*
X2789224Y-4857597D01*
X2806801Y-4853736D01*
X2817926Y-4850688D01*
X2820416Y-4855108D01*
X2824734Y-4863642D01*
X2828188Y-4871669D01*
X2831033Y-4879492D01*
X2831033Y-4880051D01*
X2833166Y-4886909D01*
X2835452Y-4896713D01*
X2837180Y-4908448D01*
X2837688Y-4914747D01*
X2837281Y-4915001D01*
X2784652Y-4915001D01*
X2784144Y-4914595D01*
X2783179Y-4897120D01*
X2782874Y-4895748D01*
X2782062Y-4887874D01*
X2782062Y-4886401D01*
X2780080Y-4873548D01*
X2777337Y-4860137D01*
X2607483Y-4860137D01*
X2604719Y-4874006D01*
X2602280Y-4890770D01*
X2601925Y-4895748D01*
X2601620Y-4897120D01*
X2600617Y-4914595D01*
X2620010Y-4914595D01*
X2620975Y-4898085D01*
X2621280Y-4896713D01*
X2622245Y-4886502D01*
X2623159Y-4881626D01*
X2623362Y-4879492D01*
X2626817Y-4862372D01*
X2627172Y-4862118D01*
X2636164Y-4862931D01*
X2637485Y-4863236D01*
X2652166Y-4864557D01*
X2659735Y-4864862D01*
X2662682Y-4865217D01*
X2682443Y-4865979D01*
X2682697Y-4866284D01*
X2682646Y-4914950D01*
X2702153Y-4914950D01*
X2702153Y-4866081D01*
X2725674Y-4865217D01*
X2729230Y-4864862D01*
X2735986Y-4864557D01*
X2757982Y-4862626D01*
X2760776Y-4875428D01*
X2762656Y-4887874D01*
X2763977Y-4899761D01*
X2764790Y-4914595D01*
X2764434Y-4915001D01*
X2620365Y-4915001D01*
X2620010Y-4914595D01*
X2600617Y-4914595D01*
X2600604Y-4914849D01*
X2599944Y-4915001D01*
X2547315Y-4914900D01*
X2547112Y-4914747D01*
X2527300Y-4914900D01*
X2527300Y-4934508D01*
X2547112Y-4934661D01*
X2547518Y-4934356D01*
X2600248Y-4934356D01*
X2600706Y-4934661D01*
X2620060Y-4934762D01*
X2620365Y-4934356D01*
X2682646Y-4934458D01*
X2682660Y-4982006D01*
X2702052Y-4982006D01*
X2702153Y-4934458D01*
X2764434Y-4934356D01*
X2764739Y-4934762D01*
X2763824Y-4950409D01*
X2760776Y-4972964D01*
X2757982Y-4985766D01*
X2757424Y-4986274D01*
X2733751Y-4983988D01*
X2717241Y-4982870D01*
X2702458Y-4982565D01*
X2702052Y-4982006D01*
X2682660Y-4982006D01*
X2682544Y-4982413D01*
X2664917Y-4982921D01*
X2662174Y-4983226D01*
X2652979Y-4983530D01*
X2637332Y-4984800D01*
X2635656Y-4985156D01*
X2630728Y-4985512D01*
X2627680Y-4985969D01*
X2626766Y-4985766D01*
X2623362Y-4968392D01*
X2622550Y-4962702D01*
X2622245Y-4961890D01*
X2620975Y-4950307D01*
X2620060Y-4934762D01*
X2600708Y-4934762D01*
X2600960Y-4941874D01*
X2602585Y-4959858D01*
X2604312Y-4971491D01*
X2607462Y-4988356D01*
X2606649Y-4988864D01*
X2777083Y-4988864D01*
X2779522Y-4977333D01*
X2782062Y-4962093D01*
X2783332Y-4948275D01*
X2784094Y-4934661D01*
X2784551Y-4934356D01*
X2837281Y-4934356D01*
X2837688Y-4934661D01*
X2837332Y-4940401D01*
X2836722Y-4945227D01*
X2836214Y-4947513D01*
X2836214Y-4948529D01*
X2833420Y-4961534D01*
X2828493Y-4977130D01*
X2825648Y-4983784D01*
X2820111Y-4994910D01*
X2817977Y-4998720D01*
X2817317Y-4998720D01*
X2807462Y-4995773D01*
X2797810Y-4993386D01*
X2780944Y-4989830D01*
X2779979Y-4989830D01*
X2777439Y-4989169D01*
X2777083Y-4988864D01*
X2606649Y-4988864D01*
X2594203Y-4991100D01*
X2584754Y-4993081D01*
X2582722Y-4993690D01*
X2582011Y-4993690D01*
X2574442Y-4995621D01*
X2567990Y-4997551D01*
X2566212Y-4997754D01*
X2563063Y-4992014D01*
X2559558Y-4984750D01*
X2556306Y-4976876D01*
X2553512Y-4968798D01*
X2551023Y-4960162D01*
X2549042Y-4950409D01*
X2548737Y-4949698D01*
X2548382Y-4946294D01*
X2548128Y-4945532D01*
X2547467Y-4940401D01*
X2547112Y-4934661D01*
X2527658Y-4934661D01*
X2528417Y-4943856D01*
X2530551Y-4957673D01*
X2532786Y-4966919D01*
X2534869Y-4974285D01*
X2537764Y-4982819D01*
X2539542Y-4987036D01*
X2539542Y-4987594D01*
X2546045Y-5001361D01*
X2548551Y-5005781D01*
X2632557Y-5005781D01*
X2632557Y-5004816D01*
X2637383Y-5004511D01*
X2639263Y-5004155D01*
X2644902Y-5003850D01*
X2646883Y-5003546D01*
X2652623Y-5003190D01*
X2654096Y-5002885D01*
X2669336Y-5002225D01*
X2682544Y-5001920D01*
X2682697Y-5002428D01*
X2682697Y-5067503D01*
X2702052Y-5067503D01*
X2702052Y-5002326D01*
X2702458Y-5001920D01*
X2713278Y-5002276D01*
X2716834Y-5002580D01*
X2728163Y-5002885D01*
X2729738Y-5003190D01*
X2749296Y-5004816D01*
X2752242Y-5005578D01*
X2746756Y-5019192D01*
X2741980Y-5029098D01*
X2737205Y-5037378D01*
X2732481Y-5044287D01*
X2727807Y-5050231D01*
X2721102Y-5056886D01*
X2716560Y-5060594D01*
X2744622Y-5060594D01*
X2744622Y-5060289D01*
X2749042Y-5054498D01*
X2753715Y-5047488D01*
X2759151Y-5038140D01*
X2765247Y-5025390D01*
X2767177Y-5020767D01*
X2767177Y-5020360D01*
X2767838Y-5019192D01*
X2767838Y-5018786D01*
X2771190Y-5009591D01*
X2772054Y-5007914D01*
X2790088Y-5011470D01*
X2803753Y-5014976D01*
X2804515Y-5014976D01*
X2805887Y-5015585D01*
X2805887Y-5015992D01*
X2801061Y-5021783D01*
X2793847Y-5029250D01*
X2784348Y-5037734D01*
X2778556Y-5042204D01*
X2770276Y-5047894D01*
X2766060Y-5050434D01*
X2757373Y-5055158D01*
X2745689Y-5060391D01*
X2744622Y-5060594D01*
X2716560Y-5060594D01*
X2712466Y-5063337D01*
X2707640Y-5065877D01*
X2702458Y-5067858D01*
X2702052Y-5067503D01*
X2682697Y-5067503D01*
X2682290Y-5067858D01*
X2676499Y-5065572D01*
X2671673Y-5063032D01*
X2667000Y-5059730D01*
X2660853Y-5054244D01*
X2656992Y-5050231D01*
X2651810Y-5043779D01*
X2647492Y-5037328D01*
X2641955Y-5027371D01*
X2636926Y-5016957D01*
X2632710Y-5005882D01*
X2548551Y-5005781D01*
X2554376Y-5015331D01*
X2578201Y-5015331D01*
X2578557Y-5014518D01*
X2595778Y-5010454D01*
X2612694Y-5007559D01*
X2613050Y-5007965D01*
X2613050Y-5008473D01*
X2616454Y-5017820D01*
X2616962Y-5018633D01*
X2618333Y-5022646D01*
X2621635Y-5030063D01*
X2628646Y-5043424D01*
X2635148Y-5053584D01*
X2640177Y-5060289D01*
X2640177Y-5060594D01*
X2639060Y-5060391D01*
X2632354Y-5057495D01*
X2625090Y-5053990D01*
X2618130Y-5050129D01*
X2606548Y-5042509D01*
X2599131Y-5036667D01*
X2590901Y-5029250D01*
X2582722Y-5020614D01*
X2578201Y-5015331D01*
X2554376Y-5015331D01*
X2560015Y-5023459D01*
X2567635Y-5032806D01*
X2576372Y-5042154D01*
X2582519Y-5047945D01*
X2586888Y-5051704D01*
X2594762Y-5057851D01*
X2607665Y-5066487D01*
X2615742Y-5071008D01*
X2629509Y-5077561D01*
X2642819Y-5082184D01*
X2650134Y-5084318D01*
X2659430Y-5086553D01*
X2671673Y-5088483D01*
X2682443Y-5089448D01*
X2682595Y-5089804D01*
X2702204Y-5089804D01*
X2702306Y-5089448D01*
X2713126Y-5088483D01*
X2726588Y-5086248D01*
X2741980Y-5082184D01*
X2754731Y-5077561D01*
X2755290Y-5077561D01*
X2761589Y-5074666D01*
X2771800Y-5069484D01*
X2780842Y-5064099D01*
X2790037Y-5057851D01*
X2798064Y-5051501D01*
X2806700Y-5043779D01*
X2811475Y-5039004D01*
X2819400Y-5030216D01*
X2826156Y-5021529D01*
X2832201Y-5012486D01*
X2837180Y-5004104D01*
X2842361Y-4993843D01*
X2845257Y-4987594D01*
X2849880Y-4974285D01*
X2853893Y-4959096D01*
X2855417Y-4950866D01*
X2856382Y-4943856D01*
X2857144Y-4934610D01*
X2857500Y-4934508D01*
X2857500Y-4914900D01*
X2857144Y-4914747D01*
X2856382Y-4905502D01*
X2854248Y-4891735D01*
X2851658Y-4881422D01*
X2851708Y-4881067D01*
X2849270Y-4873193D01*
X2845257Y-4861814D01*
X2840380Y-4851400D01*
X2833624Y-4839055D01*
X2827121Y-4829251D01*
X2823616Y-4824577D01*
X2815640Y-4814824D01*
X2809849Y-4808677D01*
X2799384Y-4798974D01*
X2790037Y-4791506D01*
X2779064Y-4784140D01*
X2769057Y-4778349D01*
X2755290Y-4771847D01*
X2754731Y-4771847D01*
X2750515Y-4770069D01*
X2741980Y-4767173D01*
X2734614Y-4765090D01*
X2725928Y-4762957D01*
X2715463Y-4761230D01*
X2706979Y-4760264D01*
X2702306Y-4759960D01*
X2702204Y-4759604D01*
G37*
G36*
X4374337Y-764286D02*
G01*
X4372203Y-765657D01*
X4370171Y-766419D01*
X4368952Y-767283D01*
X4367631Y-768604D01*
X4366818Y-769924D01*
X4366514Y-770890D01*
X4362907Y-775766D01*
X4362145Y-777697D01*
X4361332Y-779119D01*
X4360824Y-781100D01*
X4360519Y-784504D01*
X4359046Y-787958D01*
X4358538Y-792378D01*
X4357827Y-794105D01*
X4356862Y-795578D01*
X4356811Y-808380D01*
X4354880Y-811377D01*
X4354880Y-824179D01*
X4352899Y-827125D01*
X4352899Y-847801D01*
X4350918Y-850798D01*
X4350918Y-877366D01*
X4348937Y-880364D01*
X4348937Y-901039D01*
X4347006Y-903986D01*
X4346956Y-922731D01*
X4345025Y-925677D01*
X4345025Y-940460D01*
X4343044Y-943406D01*
X4343044Y-954278D01*
X4341063Y-957224D01*
X4341063Y-970026D01*
X4339082Y-972972D01*
X4339082Y-983843D01*
X4337151Y-986790D01*
X4337100Y-993698D01*
X4335170Y-996645D01*
X4335170Y-1005484D01*
X4333189Y-1008481D01*
X4333189Y-1015339D01*
X4331766Y-1017625D01*
X4331258Y-1019657D01*
X4331157Y-1022045D01*
X4330649Y-1023924D01*
X4329328Y-1026210D01*
X4328668Y-1027836D01*
X4327804Y-1028242D01*
X4325874Y-1028496D01*
X4324248Y-1029004D01*
X4321810Y-1030325D01*
X4320032Y-1030986D01*
X4318914Y-1031748D01*
X4317441Y-1032306D01*
X4316018Y-1032459D01*
X4314393Y-1032967D01*
X4310176Y-1034948D01*
X4308957Y-1035761D01*
X4307078Y-1036269D01*
X4304690Y-1036370D01*
X4302709Y-1036878D01*
X4301185Y-1037691D01*
X4299610Y-1038199D01*
X4298238Y-1038352D01*
X4296664Y-1038860D01*
X4295292Y-1039621D01*
X4293717Y-1040180D01*
X4292346Y-1040333D01*
X4290771Y-1040841D01*
X4288282Y-1042162D01*
X4286554Y-1042822D01*
X4285386Y-1043584D01*
X4283913Y-1044092D01*
X4281678Y-1044498D01*
X4278731Y-1045870D01*
X4275785Y-1046429D01*
X4272838Y-1047851D01*
X4269841Y-1048410D01*
X4266895Y-1049832D01*
X4263948Y-1050391D01*
X4261002Y-1051763D01*
X4258056Y-1052372D01*
X4255008Y-1053795D01*
X4253738Y-1053947D01*
X4252874Y-1053541D01*
X4252468Y-1052677D01*
X4252620Y-1051407D01*
X4254042Y-1048308D01*
X4254652Y-1045413D01*
X4256024Y-1042466D01*
X4256582Y-1039520D01*
X4258005Y-1036319D01*
X4258513Y-1031849D01*
X4259275Y-1030122D01*
X4260240Y-1028649D01*
X4260240Y-1019810D01*
X4262221Y-1016863D01*
X4262221Y-994664D01*
X4260240Y-991717D01*
X4260240Y-982827D01*
X4258868Y-980744D01*
X4258208Y-978865D01*
X4256887Y-976680D01*
X4256379Y-975156D01*
X4256328Y-972819D01*
X4253585Y-969568D01*
X4252518Y-967943D01*
X4252214Y-966978D01*
X4249013Y-962761D01*
X4247388Y-959866D01*
X4244848Y-957071D01*
X4242054Y-954582D01*
X4239158Y-952957D01*
X4235653Y-950163D01*
X4233621Y-949299D01*
X4231436Y-947877D01*
X4229709Y-947318D01*
X4226763Y-945896D01*
X4223359Y-945591D01*
X4221378Y-945083D01*
X4219092Y-943660D01*
X4198874Y-943660D01*
X4196638Y-945083D01*
X4194657Y-945591D01*
X4191254Y-945896D01*
X4188053Y-947318D01*
X4185107Y-947877D01*
X4182364Y-949299D01*
X4180636Y-949858D01*
X4178198Y-951280D01*
X4176674Y-951534D01*
X4175048Y-951534D01*
X4171848Y-954278D01*
X4170222Y-955344D01*
X4169257Y-955649D01*
X4164329Y-959256D01*
X4163263Y-959662D01*
X4156557Y-965098D01*
X4154932Y-966012D01*
X4150004Y-970483D01*
X4143197Y-977290D01*
X4138676Y-982268D01*
X4137812Y-983843D01*
X4132376Y-990600D01*
X4131970Y-991616D01*
X4128363Y-996543D01*
X4127601Y-998423D01*
X4126484Y-1000099D01*
X4125925Y-1001826D01*
X4124553Y-1004011D01*
X4123944Y-1005789D01*
X4122572Y-1007973D01*
X4121962Y-1009700D01*
X4120591Y-1011936D01*
X4120032Y-1013663D01*
X4118406Y-1016304D01*
X4117746Y-1018184D01*
X4116984Y-1019505D01*
X4116425Y-1021080D01*
X4116273Y-1022451D01*
X4115765Y-1024026D01*
X4114952Y-1025550D01*
X4114444Y-1027480D01*
X4114139Y-1030884D01*
X4113377Y-1032611D01*
X4112412Y-1034084D01*
X4112412Y-1040993D01*
X4110431Y-1043940D01*
X4110431Y-1080414D01*
X4128211Y-1080414D01*
X4128211Y-1049375D01*
X4130141Y-1046429D01*
X4130141Y-1039520D01*
X4131513Y-1037336D01*
X4132072Y-1035761D01*
X4132224Y-1034389D01*
X4132732Y-1032814D01*
X4133494Y-1031443D01*
X4134002Y-1029868D01*
X4134154Y-1028446D01*
X4134713Y-1026871D01*
X4135475Y-1025499D01*
X4135983Y-1023924D01*
X4136136Y-1022502D01*
X4136694Y-1021029D01*
X4137964Y-1018794D01*
X4138625Y-1017016D01*
X4139742Y-1015339D01*
X4140301Y-1013612D01*
X4141673Y-1011428D01*
X4142282Y-1009650D01*
X4143654Y-1007465D01*
X4144518Y-1005332D01*
X4147312Y-1001826D01*
X4148734Y-999134D01*
X4152900Y-994206D01*
X4155694Y-990092D01*
X4159402Y-986129D01*
X4163263Y-982573D01*
X4166920Y-980236D01*
X4172712Y-975410D01*
X4174540Y-974648D01*
X4178046Y-971854D01*
X4180128Y-970991D01*
X4182364Y-969568D01*
X4184142Y-969010D01*
X4186783Y-967384D01*
X4188612Y-966724D01*
X4189780Y-965962D01*
X4191254Y-965403D01*
X4192676Y-965250D01*
X4194251Y-964742D01*
X4196435Y-963371D01*
X4203344Y-963371D01*
X4206290Y-961390D01*
X4213707Y-961390D01*
X4215841Y-962761D01*
X4219651Y-963676D01*
X4222038Y-965047D01*
X4223766Y-965606D01*
X4226001Y-966978D01*
X4227271Y-967486D01*
X4229303Y-968908D01*
X4232554Y-971905D01*
X4235399Y-975106D01*
X4236618Y-976934D01*
X4236872Y-977900D01*
X4238294Y-980084D01*
X4238853Y-981862D01*
X4240225Y-984300D01*
X4240834Y-987247D01*
X4242511Y-990244D01*
X4242511Y-999083D01*
X4244492Y-1002080D01*
X4244492Y-1009446D01*
X4242511Y-1012393D01*
X4242511Y-1023264D01*
X4241088Y-1025550D01*
X4240580Y-1027480D01*
X4240276Y-1030884D01*
X4238802Y-1034338D01*
X4238345Y-1038809D01*
X4236872Y-1041450D01*
X4236313Y-1043178D01*
X4234942Y-1045921D01*
X4234332Y-1048918D01*
X4232960Y-1051356D01*
X4232351Y-1053084D01*
X4230979Y-1055268D01*
X4230420Y-1056995D01*
X4229049Y-1059230D01*
X4227728Y-1062177D01*
X4225086Y-1064768D01*
X4223613Y-1065530D01*
X4220616Y-1066190D01*
X4217619Y-1067562D01*
X4214672Y-1068120D01*
X4211726Y-1069543D01*
X4208729Y-1070102D01*
X4205782Y-1071473D01*
X4202836Y-1072083D01*
X4199890Y-1073454D01*
X4196943Y-1074064D01*
X4194200Y-1075436D01*
X4192473Y-1075994D01*
X4190034Y-1077417D01*
X4187088Y-1077976D01*
X4184091Y-1079398D01*
X4181144Y-1079957D01*
X4178198Y-1081328D01*
X4175251Y-1081938D01*
X4172508Y-1083310D01*
X4170781Y-1083919D01*
X4168394Y-1085291D01*
X4165396Y-1085900D01*
X4162653Y-1087272D01*
X4160926Y-1087831D01*
X4158538Y-1089253D01*
X4155541Y-1089812D01*
X4152595Y-1091184D01*
X4149598Y-1091793D01*
X4146905Y-1093165D01*
X4145178Y-1093774D01*
X4142790Y-1095146D01*
X4139844Y-1095705D01*
X4136694Y-1097076D01*
X4134865Y-1097483D01*
X4133342Y-1097432D01*
X4132630Y-1096924D01*
X4130141Y-1092047D01*
X4130141Y-1083360D01*
X4128211Y-1080414D01*
X4110431Y-1080414D01*
X4110431Y-1087780D01*
X4112412Y-1090777D01*
X4112412Y-1097635D01*
X4113784Y-1099870D01*
X4114292Y-1101699D01*
X4114393Y-1104696D01*
X4112158Y-1106525D01*
X4110532Y-1107186D01*
X4109059Y-1107338D01*
X4107434Y-1107846D01*
X4104995Y-1109167D01*
X4103217Y-1109827D01*
X4102100Y-1110589D01*
X4100626Y-1111148D01*
X4099204Y-1111300D01*
X4097578Y-1111808D01*
X4095140Y-1113078D01*
X4094378Y-1113231D01*
X4092295Y-1114552D01*
X4090517Y-1115212D01*
X4087825Y-1116838D01*
X4086047Y-1117396D01*
X4083735Y-1118768D01*
X4139996Y-1118768D01*
X4140250Y-1117854D01*
X4140860Y-1117346D01*
X4145940Y-1115161D01*
X4149090Y-1113485D01*
X4152087Y-1112875D01*
X4155033Y-1111504D01*
X4157979Y-1110894D01*
X4160977Y-1109522D01*
X4163923Y-1108964D01*
X4166615Y-1107541D01*
X4168343Y-1106982D01*
X4170527Y-1105560D01*
X4172305Y-1105001D01*
X4174744Y-1103630D01*
X4177690Y-1103020D01*
X4180687Y-1101648D01*
X4183634Y-1101039D01*
X4186580Y-1099667D01*
X4189526Y-1099108D01*
X4192270Y-1097686D01*
X4193997Y-1097127D01*
X4196384Y-1095705D01*
X4199382Y-1095146D01*
X4202531Y-1093724D01*
X4205427Y-1093419D01*
X4206595Y-1093063D01*
X4207662Y-1092047D01*
X4208932Y-1092149D01*
X4208780Y-1092606D01*
X4204919Y-1096873D01*
X4202125Y-1100988D01*
X4195013Y-1108608D01*
X4183379Y-1120241D01*
X4175506Y-1127658D01*
X4173220Y-1129182D01*
X4170426Y-1131417D01*
X4165701Y-1135684D01*
X4162348Y-1137716D01*
X4157319Y-1142034D01*
X4155643Y-1142746D01*
X4154373Y-1142339D01*
X4153103Y-1141222D01*
X4152188Y-1139952D01*
X4151833Y-1138936D01*
X4150969Y-1137462D01*
X4147718Y-1133805D01*
X4146143Y-1131722D01*
X4145330Y-1129639D01*
X4144010Y-1127506D01*
X4143349Y-1125677D01*
X4142079Y-1123543D01*
X4141927Y-1122781D01*
X4140606Y-1120597D01*
X4139996Y-1118768D01*
X4083608Y-1118819D01*
X4080662Y-1119378D01*
X4077665Y-1120749D01*
X4074718Y-1121359D01*
X4072026Y-1122730D01*
X4070248Y-1123340D01*
X4067860Y-1124712D01*
X4064863Y-1125321D01*
X4062171Y-1126693D01*
X4060393Y-1127252D01*
X4058259Y-1128674D01*
X4056481Y-1129233D01*
X4054297Y-1130604D01*
X4052519Y-1131214D01*
X4050334Y-1132586D01*
X4048607Y-1133195D01*
X4046169Y-1134567D01*
X4043222Y-1135176D01*
X4040479Y-1136548D01*
X4038752Y-1137107D01*
X4036568Y-1138529D01*
X4034790Y-1139088D01*
X4032605Y-1140460D01*
X4030878Y-1141069D01*
X4028440Y-1142441D01*
X4024680Y-1143355D01*
X4022191Y-1144625D01*
X4021480Y-1144778D01*
X4019296Y-1146098D01*
X4017822Y-1146606D01*
X4016400Y-1146759D01*
X4012641Y-1148384D01*
X4009694Y-1148943D01*
X4006443Y-1150569D01*
X4004665Y-1151229D01*
X4003548Y-1151991D01*
X3999026Y-1153210D01*
X3997655Y-1153972D01*
X3996080Y-1154480D01*
X3994708Y-1154633D01*
X3988917Y-1157122D01*
X3987749Y-1157935D01*
X3986276Y-1158443D01*
X3984853Y-1158595D01*
X3983278Y-1159103D01*
X3981907Y-1159865D01*
X3980281Y-1160424D01*
X3978910Y-1160576D01*
X3977335Y-1161084D01*
X3975963Y-1161846D01*
X3971442Y-1163066D01*
X3970070Y-1163828D01*
X3968496Y-1164336D01*
X3967124Y-1164488D01*
X3965498Y-1165047D01*
X3963060Y-1166317D01*
X3961333Y-1166977D01*
X3960164Y-1167790D01*
X3958691Y-1168298D01*
X3957269Y-1168450D01*
X3952697Y-1170279D01*
X3951325Y-1170432D01*
X3949750Y-1170940D01*
X3947312Y-1172210D01*
X3946550Y-1172362D01*
X3944416Y-1173683D01*
X3942892Y-1174191D01*
X3941521Y-1174343D01*
X3939895Y-1174902D01*
X3938524Y-1175664D01*
X3936949Y-1176172D01*
X3935577Y-1176324D01*
X3934002Y-1176883D01*
X3932072Y-1177950D01*
X3930345Y-1178509D01*
X3927906Y-1179880D01*
X3925011Y-1180439D01*
X3922776Y-1181455D01*
X3921963Y-1181506D01*
X3921201Y-1181201D01*
X3921251Y-1173530D01*
X3923182Y-1170584D01*
X3923182Y-1145946D01*
X3925163Y-1143000D01*
X3925163Y-1114399D01*
X3927144Y-1111453D01*
X3927144Y-1088796D01*
X3929126Y-1085850D01*
X3929126Y-1061212D01*
X3931056Y-1058214D01*
X3931107Y-1035558D01*
X3933037Y-1032611D01*
X3933037Y-1005992D01*
X3935018Y-1003046D01*
X3935018Y-984300D01*
X3937000Y-981354D01*
X3937000Y-960678D01*
X3938981Y-957732D01*
X3938981Y-938987D01*
X3940911Y-936040D01*
X3940962Y-919276D01*
X3942892Y-916330D01*
X3942892Y-893724D01*
X3937609Y-888492D01*
X3928668Y-888492D01*
X3926230Y-890676D01*
X3925315Y-891946D01*
X3924554Y-893978D01*
X3923284Y-896061D01*
X3923131Y-896823D01*
X3921455Y-900328D01*
X3920947Y-904748D01*
X3919524Y-908202D01*
X3919016Y-912621D01*
X3918254Y-914349D01*
X3917289Y-915822D01*
X3917289Y-922731D01*
X3915867Y-925017D01*
X3915359Y-926998D01*
X3915257Y-929284D01*
X3914749Y-931265D01*
X3913327Y-933551D01*
X3913327Y-940460D01*
X3911904Y-942746D01*
X3911447Y-944727D01*
X3911295Y-947064D01*
X3910787Y-949045D01*
X3909415Y-951280D01*
X3909364Y-958189D01*
X3907993Y-960475D01*
X3907485Y-962456D01*
X3907180Y-965860D01*
X3906418Y-967587D01*
X3905453Y-969060D01*
X3905453Y-975918D01*
X3904030Y-978204D01*
X3903522Y-980186D01*
X3903218Y-983589D01*
X3901744Y-987044D01*
X3901236Y-991463D01*
X3900119Y-994003D01*
X3899611Y-995984D01*
X3899458Y-998270D01*
X3899001Y-1000252D01*
X3898137Y-1001877D01*
X3897629Y-1003858D01*
X3897325Y-1007211D01*
X3895851Y-1010666D01*
X3895547Y-1014069D01*
X3895039Y-1016050D01*
X3894175Y-1017625D01*
X3893667Y-1019606D01*
X3893362Y-1023010D01*
X3891889Y-1026464D01*
X3891381Y-1030884D01*
X3890264Y-1033424D01*
X3889756Y-1035405D01*
X3889603Y-1037742D01*
X3889146Y-1039672D01*
X3888282Y-1041298D01*
X3887774Y-1043279D01*
X3887470Y-1046632D01*
X3885996Y-1050086D01*
X3885692Y-1053490D01*
X3885184Y-1055471D01*
X3884320Y-1057046D01*
X3883812Y-1059027D01*
X3883507Y-1062431D01*
X3882034Y-1065885D01*
X3881526Y-1070305D01*
X3880408Y-1072845D01*
X3879900Y-1074826D01*
X3879748Y-1077163D01*
X3879291Y-1079093D01*
X3878427Y-1080719D01*
X3877919Y-1082700D01*
X3877614Y-1086053D01*
X3876192Y-1089304D01*
X3875582Y-1092250D01*
X3874160Y-1095451D01*
X3873855Y-1098804D01*
X3873347Y-1100785D01*
X3872484Y-1102410D01*
X3872026Y-1104392D01*
X3871874Y-1106728D01*
X3871366Y-1108659D01*
X3870248Y-1111199D01*
X3869740Y-1115618D01*
X3868318Y-1118819D01*
X3867708Y-1121816D01*
X3866337Y-1124762D01*
X3865422Y-1128522D01*
X3864051Y-1130655D01*
X3864051Y-1137564D01*
X3862679Y-1139748D01*
X3862171Y-1141323D01*
X3862019Y-1142695D01*
X3860190Y-1147216D01*
X3860037Y-1148588D01*
X3858209Y-1153160D01*
X3858056Y-1154531D01*
X3857548Y-1156106D01*
X3856736Y-1157579D01*
X3856228Y-1159560D01*
X3855923Y-1162964D01*
X3854500Y-1166164D01*
X3853891Y-1169111D01*
X3852468Y-1172311D01*
X3851960Y-1176731D01*
X3850538Y-1179931D01*
X3849979Y-1182928D01*
X3848557Y-1186129D01*
X3848252Y-1189482D01*
X3847744Y-1191463D01*
X3846931Y-1192936D01*
X3846017Y-1196695D01*
X3844645Y-1199642D01*
X3844086Y-1202588D01*
X3843477Y-1203858D01*
X3860596Y-1203858D01*
X3860698Y-1202588D01*
X3861866Y-1200048D01*
X3862374Y-1197203D01*
X3863797Y-1194003D01*
X3864101Y-1190599D01*
X3864610Y-1188618D01*
X3865422Y-1187145D01*
X3866642Y-1182624D01*
X3867454Y-1181100D01*
X3867962Y-1179118D01*
X3868064Y-1176832D01*
X3868572Y-1174851D01*
X3869385Y-1173327D01*
X3869893Y-1171752D01*
X3870045Y-1170381D01*
X3871366Y-1167333D01*
X3871874Y-1165352D01*
X3872026Y-1163015D01*
X3872484Y-1161034D01*
X3873347Y-1159459D01*
X3873855Y-1157478D01*
X3874160Y-1154074D01*
X3875582Y-1150874D01*
X3876497Y-1147114D01*
X3877310Y-1145641D01*
X3877818Y-1143660D01*
X3878122Y-1140307D01*
X3879545Y-1137056D01*
X3880104Y-1134110D01*
X3881221Y-1131824D01*
X3881729Y-1129842D01*
X3881882Y-1127556D01*
X3882339Y-1125575D01*
X3883202Y-1123950D01*
X3883710Y-1121968D01*
X3884015Y-1118616D01*
X3885437Y-1115415D01*
X3886047Y-1112418D01*
X3887470Y-1109218D01*
X3887774Y-1105865D01*
X3888282Y-1103884D01*
X3889095Y-1102410D01*
X3889603Y-1100785D01*
X3889756Y-1099413D01*
X3891076Y-1096365D01*
X3891584Y-1094384D01*
X3891737Y-1092047D01*
X3892194Y-1090066D01*
X3893058Y-1088491D01*
X3893565Y-1086510D01*
X3893870Y-1083106D01*
X3895293Y-1079906D01*
X3895902Y-1076960D01*
X3897325Y-1073759D01*
X3897629Y-1070356D01*
X3898137Y-1068374D01*
X3899001Y-1066800D01*
X3899458Y-1064818D01*
X3899611Y-1062482D01*
X3900119Y-1060500D01*
X3900932Y-1058926D01*
X3901440Y-1056944D01*
X3901592Y-1054608D01*
X3902049Y-1052626D01*
X3902862Y-1051153D01*
X3903421Y-1049578D01*
X3903573Y-1048207D01*
X3904081Y-1046581D01*
X3904894Y-1045108D01*
X3905402Y-1043127D01*
X3905707Y-1039774D01*
X3907180Y-1036319D01*
X3907485Y-1032916D01*
X3907993Y-1030935D01*
X3908856Y-1029360D01*
X3909314Y-1027379D01*
X3909466Y-1025042D01*
X3909974Y-1023061D01*
X3910787Y-1021486D01*
X3911295Y-1019505D01*
X3911447Y-1017168D01*
X3911904Y-1015187D01*
X3913276Y-1012088D01*
X3913428Y-1010716D01*
X3913936Y-1009142D01*
X3914749Y-1007668D01*
X3915257Y-1005687D01*
X3915562Y-1002284D01*
X3917035Y-998829D01*
X3917340Y-995476D01*
X3917848Y-993495D01*
X3918661Y-991920D01*
X3919169Y-989990D01*
X3919423Y-986332D01*
X3919677Y-985519D01*
X3920083Y-985113D01*
X3920388Y-985113D01*
X3920794Y-985519D01*
X3921048Y-986485D01*
X3921201Y-995629D01*
X3919270Y-998626D01*
X3919270Y-1027176D01*
X3917289Y-1030122D01*
X3917289Y-1054811D01*
X3915308Y-1057757D01*
X3915308Y-1080414D01*
X3913327Y-1083360D01*
X3913327Y-1106017D01*
X3911396Y-1109014D01*
X3911346Y-1137564D01*
X3909415Y-1140510D01*
X3909364Y-1163218D01*
X3907434Y-1166164D01*
X3907434Y-1186891D01*
X3906469Y-1187704D01*
X3905351Y-1188059D01*
X3904030Y-1188161D01*
X3902456Y-1188669D01*
X3901084Y-1189431D01*
X3899509Y-1189990D01*
X3898087Y-1190142D01*
X3896512Y-1190650D01*
X3894074Y-1191920D01*
X3893362Y-1192072D01*
X3891178Y-1193393D01*
X3889705Y-1193901D01*
X3888282Y-1194054D01*
X3882491Y-1196543D01*
X3881323Y-1197356D01*
X3879850Y-1197864D01*
X3878427Y-1198016D01*
X3873855Y-1199845D01*
X3872484Y-1199997D01*
X3870909Y-1200505D01*
X3866692Y-1202486D01*
X3865473Y-1203299D01*
X3863797Y-1203807D01*
X3843477Y-1203858D01*
X3842816Y-1205585D01*
X3842359Y-1208024D01*
X3842156Y-1210970D01*
X3840632Y-1210970D01*
X3840175Y-1191260D01*
X3838448Y-1188821D01*
X3838448Y-1181912D01*
X3837025Y-1179626D01*
X3836517Y-1177645D01*
X3836415Y-1175359D01*
X3835908Y-1173378D01*
X3835095Y-1171854D01*
X3834587Y-1170279D01*
X3834434Y-1168908D01*
X3833876Y-1167333D01*
X3833114Y-1165961D01*
X3832606Y-1164386D01*
X3832453Y-1163015D01*
X3829964Y-1157224D01*
X3828643Y-1155090D01*
X3828440Y-1154226D01*
X3825849Y-1150924D01*
X3823868Y-1147724D01*
X3818839Y-1142187D01*
X3811422Y-1134770D01*
X3805936Y-1129690D01*
X3804869Y-1128928D01*
X3803954Y-1128674D01*
X3801211Y-1127048D01*
X3799433Y-1126388D01*
X3797300Y-1125067D01*
X3795471Y-1124407D01*
X3794150Y-1123645D01*
X3789578Y-1122426D01*
X3788105Y-1121613D01*
X3786124Y-1121105D01*
X3782771Y-1120800D01*
X3781044Y-1120089D01*
X3779570Y-1119124D01*
X3768699Y-1119073D01*
X3766464Y-1117701D01*
X3764584Y-1117193D01*
X3762501Y-1117193D01*
X3760622Y-1117701D01*
X3758336Y-1119073D01*
X3741623Y-1119124D01*
X3738626Y-1121054D01*
X3731768Y-1121054D01*
X3729482Y-1122476D01*
X3727500Y-1122984D01*
X3724097Y-1123289D01*
X3720896Y-1124712D01*
X3717950Y-1125321D01*
X3715004Y-1126693D01*
X3712057Y-1127252D01*
X3709060Y-1128674D01*
X3706114Y-1129233D01*
X3703421Y-1130604D01*
X3701694Y-1131214D01*
X3699510Y-1132586D01*
X3697732Y-1133195D01*
X3695547Y-1134567D01*
X3693820Y-1135126D01*
X3691128Y-1136751D01*
X3689299Y-1137412D01*
X3688232Y-1138224D01*
X3686403Y-1138885D01*
X3683254Y-1140714D01*
X3681425Y-1141374D01*
X3679291Y-1142644D01*
X3678428Y-1142898D01*
X3673551Y-1146556D01*
X3671570Y-1147267D01*
X3670503Y-1148080D01*
X3668572Y-1148791D01*
X3663696Y-1152448D01*
X3662730Y-1152753D01*
X3658514Y-1155954D01*
X3656076Y-1157122D01*
X3652570Y-1159916D01*
X3649878Y-1161338D01*
X3645001Y-1165555D01*
X3642004Y-1167282D01*
X3637127Y-1171448D01*
X3634130Y-1173175D01*
X3629253Y-1177340D01*
X3627729Y-1178204D01*
X3625342Y-1179982D01*
X3616299Y-1188364D01*
X3612184Y-1191361D01*
X3601821Y-1201318D01*
X3585565Y-1217574D01*
X3575659Y-1227937D01*
X3573779Y-1230579D01*
X3570224Y-1234694D01*
X3564737Y-1240383D01*
X3561029Y-1244549D01*
X3560216Y-1246124D01*
X3558082Y-1248765D01*
X3553764Y-1253490D01*
X3551783Y-1256792D01*
X3547567Y-1261668D01*
X3545840Y-1264716D01*
X3541674Y-1269542D01*
X3539947Y-1272590D01*
X3535781Y-1277416D01*
X3534867Y-1278839D01*
X3534613Y-1279753D01*
X3532987Y-1282496D01*
X3532784Y-1283360D01*
X3529126Y-1288237D01*
X3528923Y-1289100D01*
X3527602Y-1291234D01*
X3526942Y-1293012D01*
X3525316Y-1296263D01*
X3524758Y-1299210D01*
X3523081Y-1302156D01*
X3523081Y-1309319D01*
X3538829Y-1309319D01*
X3539134Y-1307642D01*
X3540506Y-1304594D01*
X3541115Y-1301648D01*
X3542487Y-1299210D01*
X3543046Y-1297432D01*
X3544468Y-1295247D01*
X3545332Y-1293114D01*
X3548126Y-1289659D01*
X3548989Y-1287627D01*
X3550361Y-1285392D01*
X3551224Y-1283258D01*
X3554018Y-1279753D01*
X3555492Y-1277010D01*
X3559657Y-1272184D01*
X3561079Y-1269492D01*
X3563264Y-1266799D01*
X3564788Y-1264056D01*
X3566871Y-1261465D01*
X3569919Y-1258163D01*
X3572052Y-1255522D01*
X3572865Y-1253947D01*
X3576472Y-1249781D01*
X3584092Y-1241755D01*
X3590340Y-1234084D01*
X3600551Y-1223670D01*
X3614115Y-1210716D01*
X3616350Y-1209294D01*
X3620312Y-1205839D01*
X3625799Y-1200454D01*
X3629964Y-1196746D01*
X3631793Y-1195730D01*
X3634587Y-1193495D01*
X3639312Y-1189228D01*
X3642614Y-1187196D01*
X3647490Y-1183030D01*
X3650234Y-1181608D01*
X3653739Y-1178814D01*
X3656431Y-1177340D01*
X3661308Y-1173175D01*
X3664000Y-1171752D01*
X3668217Y-1168501D01*
X3670198Y-1167790D01*
X3671874Y-1166672D01*
X3673906Y-1165809D01*
X3678072Y-1162608D01*
X3680053Y-1161846D01*
X3682187Y-1160576D01*
X3682949Y-1160424D01*
X3685082Y-1159103D01*
X3687978Y-1157935D01*
X3689045Y-1157122D01*
X3690823Y-1156462D01*
X3694023Y-1154633D01*
X3695852Y-1153972D01*
X3697020Y-1153210D01*
X3698544Y-1152702D01*
X3700881Y-1152601D01*
X3705453Y-1148638D01*
X3707739Y-1148588D01*
X3709365Y-1148029D01*
X3711295Y-1146962D01*
X3713022Y-1146403D01*
X3715461Y-1144981D01*
X3718407Y-1144422D01*
X3721658Y-1143000D01*
X3726078Y-1142492D01*
X3729278Y-1141069D01*
X3732225Y-1140460D01*
X3733749Y-1139799D01*
X3735222Y-1138834D01*
X3746042Y-1138783D01*
X3748989Y-1136853D01*
X3772154Y-1136853D01*
X3774440Y-1138224D01*
X3776421Y-1138732D01*
X3778758Y-1138885D01*
X3780739Y-1139342D01*
X3782212Y-1140155D01*
X3783837Y-1140714D01*
X3785209Y-1140866D01*
X3786733Y-1141374D01*
X3788918Y-1142644D01*
X3790746Y-1143355D01*
X3792931Y-1144625D01*
X3793896Y-1144930D01*
X3799687Y-1149756D01*
X3802227Y-1151077D01*
X3803497Y-1152093D01*
X3804513Y-1153363D01*
X3805783Y-1155903D01*
X3809949Y-1160729D01*
X3810863Y-1162202D01*
X3811117Y-1163167D01*
X3812743Y-1165910D01*
X3813403Y-1167688D01*
X3814165Y-1168857D01*
X3814724Y-1170330D01*
X3814876Y-1171752D01*
X3815384Y-1173327D01*
X3816654Y-1175816D01*
X3816807Y-1176528D01*
X3818737Y-1179322D01*
X3818737Y-1186332D01*
X3820160Y-1188618D01*
X3820617Y-1190599D01*
X3820769Y-1192936D01*
X3821277Y-1194917D01*
X3822649Y-1197203D01*
X3822649Y-1219149D01*
X3815435Y-1222197D01*
X3814318Y-1222959D01*
X3812844Y-1223467D01*
X3811422Y-1223619D01*
X3809796Y-1224178D01*
X3807358Y-1225448D01*
X3805580Y-1226108D01*
X3804462Y-1226921D01*
X3802989Y-1227429D01*
X3801567Y-1227582D01*
X3799941Y-1228090D01*
X3798570Y-1228852D01*
X3796995Y-1229410D01*
X3795623Y-1229563D01*
X3794048Y-1230071D01*
X3787952Y-1233119D01*
X3785006Y-1233728D01*
X3782263Y-1235100D01*
X3780536Y-1235659D01*
X3778097Y-1237081D01*
X3775151Y-1237640D01*
X3772154Y-1239012D01*
X3769207Y-1239621D01*
X3764229Y-1241907D01*
X3763060Y-1242669D01*
X3761587Y-1243177D01*
X3760165Y-1243330D01*
X3758539Y-1243888D01*
X3756101Y-1245158D01*
X3754374Y-1245819D01*
X3753205Y-1246632D01*
X3751732Y-1247140D01*
X3750310Y-1247292D01*
X3748684Y-1247800D01*
X3745026Y-1249476D01*
X3742639Y-1250848D01*
X3739642Y-1251458D01*
X3736898Y-1252829D01*
X3735171Y-1253439D01*
X3732784Y-1254810D01*
X3729786Y-1255369D01*
X3726840Y-1256792D01*
X3723843Y-1257350D01*
X3720642Y-1258976D01*
X3718864Y-1259636D01*
X3717747Y-1260398D01*
X3716223Y-1260957D01*
X3714851Y-1261110D01*
X3713226Y-1261618D01*
X3711854Y-1262380D01*
X3710279Y-1262888D01*
X3708908Y-1263040D01*
X3704336Y-1264869D01*
X3702964Y-1265021D01*
X3701389Y-1265580D01*
X3700018Y-1266342D01*
X3698443Y-1266850D01*
X3697071Y-1267002D01*
X3695496Y-1267510D01*
X3694125Y-1268272D01*
X3692550Y-1268831D01*
X3691128Y-1268984D01*
X3689553Y-1269492D01*
X3687114Y-1270762D01*
X3685895Y-1271168D01*
X3683508Y-1272540D01*
X3680510Y-1273149D01*
X3677564Y-1274521D01*
X3674567Y-1275080D01*
X3671620Y-1276502D01*
X3668674Y-1277061D01*
X3665982Y-1278432D01*
X3664204Y-1279042D01*
X3661816Y-1280414D01*
X3658819Y-1281023D01*
X3655872Y-1282395D01*
X3652926Y-1283004D01*
X3649929Y-1284376D01*
X3646982Y-1284935D01*
X3644696Y-1286052D01*
X3642715Y-1286560D01*
X3640429Y-1286713D01*
X3638448Y-1287170D01*
X3635857Y-1288542D01*
X3634130Y-1289202D01*
X3632962Y-1289964D01*
X3631488Y-1290523D01*
X3630066Y-1290675D01*
X3628491Y-1291183D01*
X3627069Y-1291945D01*
X3625494Y-1292453D01*
X3624122Y-1292606D01*
X3622548Y-1293164D01*
X3621074Y-1293977D01*
X3619093Y-1294434D01*
X3616756Y-1294587D01*
X3614775Y-1295095D01*
X3613302Y-1295908D01*
X3611727Y-1296416D01*
X3610356Y-1296568D01*
X3608730Y-1297076D01*
X3607358Y-1297838D01*
X3605784Y-1298397D01*
X3604412Y-1298549D01*
X3602837Y-1299057D01*
X3601465Y-1299819D01*
X3596944Y-1301038D01*
X3595420Y-1301851D01*
X3593439Y-1302359D01*
X3591153Y-1302461D01*
X3589172Y-1302969D01*
X3587648Y-1303782D01*
X3586073Y-1304290D01*
X3584701Y-1304442D01*
X3583127Y-1305001D01*
X3581755Y-1305763D01*
X3580180Y-1306271D01*
X3578809Y-1306423D01*
X3577234Y-1306931D01*
X3575050Y-1308303D01*
X3568141Y-1308303D01*
X3565194Y-1310284D01*
X3558286Y-1310284D01*
X3555339Y-1312265D01*
X3544214Y-1312214D01*
X3540150Y-1311910D01*
X3539439Y-1311656D01*
X3538982Y-1310741D01*
X3538829Y-1309319D01*
X3523081Y-1309319D01*
X3523081Y-1320698D01*
X3526637Y-1324406D01*
X3528466Y-1325829D01*
X3530549Y-1326642D01*
X3532632Y-1327962D01*
X3534511Y-1328623D01*
X3536594Y-1329994D01*
X3554831Y-1329994D01*
X3557778Y-1328013D01*
X3564686Y-1328013D01*
X3566972Y-1326591D01*
X3568954Y-1326134D01*
X3571290Y-1325981D01*
X3573272Y-1325473D01*
X3576320Y-1324152D01*
X3577691Y-1324000D01*
X3579266Y-1323492D01*
X3580790Y-1322679D01*
X3582771Y-1322171D01*
X3586124Y-1321866D01*
X3589324Y-1320444D01*
X3592322Y-1319834D01*
X3595268Y-1318463D01*
X3598214Y-1317904D01*
X3601415Y-1316431D01*
X3605834Y-1315923D01*
X3609848Y-1314297D01*
X3611219Y-1314145D01*
X3612794Y-1313637D01*
X3614165Y-1312875D01*
X3615740Y-1312316D01*
X3617112Y-1312164D01*
X3618687Y-1311656D01*
X3620109Y-1310894D01*
X3624630Y-1309674D01*
X3626002Y-1308912D01*
X3627577Y-1308404D01*
X3628948Y-1308252D01*
X3634740Y-1305763D01*
X3636518Y-1304391D01*
X3643528Y-1304391D01*
X3645662Y-1303020D01*
X3647998Y-1302105D01*
X3650437Y-1300734D01*
X3654196Y-1299819D01*
X3655568Y-1299057D01*
X3657142Y-1298549D01*
X3658514Y-1298397D01*
X3664305Y-1295908D01*
X3665575Y-1295044D01*
X3667404Y-1294587D01*
X3669792Y-1294434D01*
X3671824Y-1293977D01*
X3678021Y-1290878D01*
X3680968Y-1290269D01*
X3683711Y-1288897D01*
X3685438Y-1288338D01*
X3687876Y-1286916D01*
X3690823Y-1286357D01*
X3693820Y-1284935D01*
X3696766Y-1284376D01*
X3699459Y-1283004D01*
X3701237Y-1282395D01*
X3703624Y-1281023D01*
X3707384Y-1280109D01*
X3708806Y-1279347D01*
X3710381Y-1278839D01*
X3711752Y-1278686D01*
X3713327Y-1278128D01*
X3714699Y-1277366D01*
X3716274Y-1276858D01*
X3717645Y-1276705D01*
X3719220Y-1276197D01*
X3720592Y-1275435D01*
X3722166Y-1274876D01*
X3723589Y-1274724D01*
X3725164Y-1274216D01*
X3731463Y-1271117D01*
X3734866Y-1270812D01*
X3736848Y-1270304D01*
X3739438Y-1268984D01*
X3740150Y-1268831D01*
X3742283Y-1267510D01*
X3744061Y-1266850D01*
X3746246Y-1265529D01*
X3747770Y-1265021D01*
X3749141Y-1264869D01*
X3750767Y-1264361D01*
X3752138Y-1263599D01*
X3753713Y-1263040D01*
X3755085Y-1262888D01*
X3756710Y-1262380D01*
X3759149Y-1261110D01*
X3759860Y-1260957D01*
X3762044Y-1259636D01*
X3763518Y-1259128D01*
X3764940Y-1258976D01*
X3769512Y-1257147D01*
X3770884Y-1256995D01*
X3772458Y-1256487D01*
X3774897Y-1255166D01*
X3776675Y-1254506D01*
X3778808Y-1253185D01*
X3780586Y-1252524D01*
X3781755Y-1251762D01*
X3783228Y-1251254D01*
X3785463Y-1250848D01*
X3788410Y-1249476D01*
X3791356Y-1248867D01*
X3794099Y-1247495D01*
X3795826Y-1246936D01*
X3798265Y-1245514D01*
X3801211Y-1244955D01*
X3804462Y-1243330D01*
X3806240Y-1242669D01*
X3807358Y-1241907D01*
X3811879Y-1240688D01*
X3813251Y-1239926D01*
X3814775Y-1239418D01*
X3816146Y-1239266D01*
X3820718Y-1237488D01*
X3822395Y-1237589D01*
X3822700Y-1249730D01*
X3820718Y-1252982D01*
X3820668Y-1265682D01*
X3818737Y-1268628D01*
X3818737Y-1277518D01*
X3816756Y-1280464D01*
X3816756Y-1289354D01*
X3815384Y-1291488D01*
X3814876Y-1293114D01*
X3814724Y-1294485D01*
X3814165Y-1296060D01*
X3813403Y-1297432D01*
X3812895Y-1299057D01*
X3812743Y-1300429D01*
X3812235Y-1301953D01*
X3811117Y-1303629D01*
X3810558Y-1305356D01*
X3809136Y-1308252D01*
X3808882Y-1310284D01*
X3809136Y-1312316D01*
X3811371Y-1317294D01*
X3814318Y-1320139D01*
X3823309Y-1320139D01*
X3828592Y-1314856D01*
X3828643Y-1312418D01*
X3829202Y-1310741D01*
X3829964Y-1309370D01*
X3830472Y-1307795D01*
X3830624Y-1306372D01*
X3831132Y-1304798D01*
X3831945Y-1303324D01*
X3832453Y-1301343D01*
X3832606Y-1299006D01*
X3833063Y-1297025D01*
X3833876Y-1295552D01*
X3834434Y-1293977D01*
X3834587Y-1292606D01*
X3835095Y-1291031D01*
X3835857Y-1289659D01*
X3836771Y-1285900D01*
X3838194Y-1282700D01*
X3838498Y-1279296D01*
X3839006Y-1277315D01*
X3839819Y-1275842D01*
X3840327Y-1274267D01*
X3840479Y-1272895D01*
X3842105Y-1268882D01*
X3842613Y-1264462D01*
X3844086Y-1261008D01*
X3844391Y-1257604D01*
X3844899Y-1255674D01*
X3845712Y-1254150D01*
X3846931Y-1249629D01*
X3847693Y-1248257D01*
X3848201Y-1246682D01*
X3848354Y-1245311D01*
X3849725Y-1242212D01*
X3850182Y-1240231D01*
X3850335Y-1237894D01*
X3850843Y-1235913D01*
X3852164Y-1232865D01*
X3852316Y-1231493D01*
X3852824Y-1229918D01*
X3853586Y-1228547D01*
X3854145Y-1226921D01*
X3854399Y-1224991D01*
X3854805Y-1224127D01*
X3856939Y-1223264D01*
X3859326Y-1221892D01*
X3863136Y-1220978D01*
X3867353Y-1218996D01*
X3868470Y-1218234D01*
X3869944Y-1217726D01*
X3871366Y-1217574D01*
X3872992Y-1217015D01*
X3874922Y-1215948D01*
X3876649Y-1215390D01*
X3879037Y-1214018D01*
X3882034Y-1213408D01*
X3884980Y-1212037D01*
X3887978Y-1211427D01*
X3890924Y-1210056D01*
X3893870Y-1209446D01*
X3896614Y-1208074D01*
X3898341Y-1207516D01*
X3901033Y-1205890D01*
X3902659Y-1205331D01*
X3903878Y-1204518D01*
X3904691Y-1204518D01*
X3905453Y-1204823D01*
X3905453Y-1222349D01*
X3903472Y-1225296D01*
X3903472Y-1247952D01*
X3901541Y-1250899D01*
X3901490Y-1277518D01*
X3899560Y-1280464D01*
X3899509Y-1305102D01*
X3897579Y-1308049D01*
X3897579Y-1330756D01*
X3895598Y-1333703D01*
X3895598Y-1359916D01*
X3897934Y-1363218D01*
X3900881Y-1363472D01*
X3906062Y-1363472D01*
X3909009Y-1363218D01*
X3909415Y-1362964D01*
X3911142Y-1359611D01*
X3911600Y-1355140D01*
X3912362Y-1353413D01*
X3913327Y-1351940D01*
X3913327Y-1315466D01*
X3915308Y-1312519D01*
X3915308Y-1276045D01*
X3917289Y-1273098D01*
X3917289Y-1240536D01*
X3919270Y-1237589D01*
X3919270Y-1205077D01*
X3920591Y-1202893D01*
X3921150Y-1201318D01*
X3921251Y-1199997D01*
X3921607Y-1198880D01*
X3922420Y-1198118D01*
X3923944Y-1197660D01*
X3926586Y-1196187D01*
X3931056Y-1195730D01*
X3936339Y-1193393D01*
X3937457Y-1192631D01*
X3938930Y-1192072D01*
X3940352Y-1191920D01*
X3941978Y-1191412D01*
X3943350Y-1190650D01*
X3944924Y-1190142D01*
X3946296Y-1189990D01*
X3947871Y-1189431D01*
X3950411Y-1188161D01*
X3951986Y-1187653D01*
X3952951Y-1186840D01*
X3953814Y-1186586D01*
X3954729Y-1186586D01*
X3954729Y-1189075D01*
X3980332Y-1189075D01*
X3980738Y-1188618D01*
X3983278Y-1187450D01*
X3986834Y-1184706D01*
X3989273Y-1183538D01*
X3993438Y-1180338D01*
X3994353Y-1180134D01*
X3996537Y-1178814D01*
X3998417Y-1178052D01*
X4003294Y-1174445D01*
X4005275Y-1173683D01*
X4007459Y-1172413D01*
X4008678Y-1172006D01*
X4010863Y-1170635D01*
X4012641Y-1170025D01*
X4014825Y-1168654D01*
X4016552Y-1168095D01*
X4019245Y-1166469D01*
X4021074Y-1165809D01*
X4023207Y-1164488D01*
X4024071Y-1164285D01*
X4025595Y-1163218D01*
X4028643Y-1160475D01*
X4032046Y-1160475D01*
X4035247Y-1157732D01*
X4036872Y-1156716D01*
X4038803Y-1155954D01*
X4040936Y-1154633D01*
X4042765Y-1153972D01*
X4043883Y-1153210D01*
X4045407Y-1152652D01*
X4046778Y-1152499D01*
X4048404Y-1151991D01*
X4049776Y-1151229D01*
X4051350Y-1150721D01*
X4052722Y-1150569D01*
X4058513Y-1148080D01*
X4059682Y-1147267D01*
X4061155Y-1146759D01*
X4062577Y-1146606D01*
X4067149Y-1144778D01*
X4068521Y-1144625D01*
X4070096Y-1144117D01*
X4074312Y-1142136D01*
X4075429Y-1141374D01*
X4076903Y-1140866D01*
X4078325Y-1140714D01*
X4079951Y-1140155D01*
X4082389Y-1138885D01*
X4084167Y-1138224D01*
X4085285Y-1137412D01*
X4086758Y-1136904D01*
X4088180Y-1136751D01*
X4089806Y-1136243D01*
X4091178Y-1135481D01*
X4092752Y-1134922D01*
X4094124Y-1134770D01*
X4095699Y-1134262D01*
X4101795Y-1131214D01*
X4104741Y-1130604D01*
X4107738Y-1129233D01*
X4110685Y-1128674D01*
X4113428Y-1127252D01*
X4115155Y-1126693D01*
X4117695Y-1125270D01*
X4119626Y-1125016D01*
X4121759Y-1125016D01*
X4122318Y-1126998D01*
X4123690Y-1129385D01*
X4124299Y-1131163D01*
X4125620Y-1133297D01*
X4126382Y-1135227D01*
X4127398Y-1136751D01*
X4128973Y-1138529D01*
X4129989Y-1140104D01*
X4130294Y-1141069D01*
X4133951Y-1146048D01*
X4134662Y-1147775D01*
X4137558Y-1151178D01*
X4138015Y-1152652D01*
X4137660Y-1153972D01*
X4137237Y-1154582D01*
X4169562Y-1154582D01*
X4169968Y-1153210D01*
X4171086Y-1151890D01*
X4172407Y-1151026D01*
X4173423Y-1150620D01*
X4175455Y-1149197D01*
X4183024Y-1142238D01*
X4187240Y-1139342D01*
X4194860Y-1132382D01*
X4196943Y-1130909D01*
X4198061Y-1130452D01*
X4199483Y-1129334D01*
X4200652Y-1127963D01*
X4201769Y-1125677D01*
X4206798Y-1120140D01*
X4214825Y-1111961D01*
X4220057Y-1106220D01*
X4222648Y-1102410D01*
X4226509Y-1097788D01*
X4226966Y-1096619D01*
X4232402Y-1089914D01*
X4232808Y-1088847D01*
X4235399Y-1085494D01*
X4236415Y-1083868D01*
X4236720Y-1082954D01*
X4237482Y-1081735D01*
X4238650Y-1080566D01*
X4239869Y-1079804D01*
X4240733Y-1079601D01*
X4243730Y-1077976D01*
X4246676Y-1077417D01*
X4249674Y-1075994D01*
X4252620Y-1075436D01*
X4257598Y-1073150D01*
X4258767Y-1072388D01*
X4260240Y-1071880D01*
X4261662Y-1071727D01*
X4263237Y-1071168D01*
X4265726Y-1069898D01*
X4266438Y-1069746D01*
X4269333Y-1068120D01*
X4272330Y-1067562D01*
X4275277Y-1066139D01*
X4278223Y-1065580D01*
X4281170Y-1064209D01*
X4284167Y-1063599D01*
X4286859Y-1062228D01*
X4288586Y-1061618D01*
X4291025Y-1060246D01*
X4293971Y-1059688D01*
X4296968Y-1058265D01*
X4299915Y-1057706D01*
X4302658Y-1056335D01*
X4304385Y-1055725D01*
X4306773Y-1054354D01*
X4309770Y-1053744D01*
X4312716Y-1052372D01*
X4315663Y-1051763D01*
X4318457Y-1050391D01*
X4320184Y-1049883D01*
X4321556Y-1048867D01*
X4322419Y-1048613D01*
X4323334Y-1048613D01*
X4323232Y-1051661D01*
X4322741Y-1053490D01*
X4341571Y-1053490D01*
X4341622Y-1052728D01*
X4342384Y-1051661D01*
X4343654Y-1044956D01*
X4345381Y-1040790D01*
X4345990Y-1040333D01*
X4348073Y-1039621D01*
X4350461Y-1038352D01*
X4352239Y-1037691D01*
X4353356Y-1036929D01*
X4354830Y-1036370D01*
X4356252Y-1036218D01*
X4357878Y-1035710D01*
X4360367Y-1034440D01*
X4361129Y-1034389D01*
X4363008Y-1035303D01*
X4346752Y-1051610D01*
X4344212Y-1052322D01*
X4343095Y-1052982D01*
X4342282Y-1053998D01*
X4341876Y-1053947D01*
X4341571Y-1053490D01*
X4322724Y-1053541D01*
X4321752Y-1055522D01*
X4368647Y-1055522D01*
X4368647Y-1052779D01*
X4375505Y-1045921D01*
X4378147Y-1042822D01*
X4378756Y-1041450D01*
X4380331Y-1039317D01*
X4382617Y-1036828D01*
X4384192Y-1034694D01*
X4384649Y-1033526D01*
X4390085Y-1026820D01*
X4390440Y-1025804D01*
X4391202Y-1024585D01*
X4392422Y-1023366D01*
X4393590Y-1022603D01*
X4394454Y-1022451D01*
X4396689Y-1021130D01*
X4398619Y-1020470D01*
X4400804Y-1019149D01*
X4401464Y-1019352D01*
X4401972Y-1020368D01*
X4402074Y-1022096D01*
X4401667Y-1023823D01*
X4400194Y-1026312D01*
X4400194Y-1082395D01*
X4398975Y-1084326D01*
X4398365Y-1086612D01*
X4397654Y-1091031D01*
X4397400Y-1091387D01*
X4396841Y-1091082D01*
X4395927Y-1088847D01*
X4394555Y-1086561D01*
X4393996Y-1084834D01*
X4392625Y-1082649D01*
X4392015Y-1080922D01*
X4390644Y-1078687D01*
X4390034Y-1076960D01*
X4388662Y-1074775D01*
X4387799Y-1072692D01*
X4385005Y-1069238D01*
X4383481Y-1066241D01*
X4380941Y-1064006D01*
X4379417Y-1063548D01*
X4378858Y-1063040D01*
X4378045Y-1060958D01*
X4375607Y-1058468D01*
X4373626Y-1057706D01*
X4371340Y-1056335D01*
X4368647Y-1055522D01*
X4321752Y-1055522D01*
X4321048Y-1058722D01*
X4319676Y-1061669D01*
X4319066Y-1064615D01*
X4317695Y-1067612D01*
X4317136Y-1070559D01*
X4315510Y-1074318D01*
X4315358Y-1075690D01*
X4314850Y-1077264D01*
X4314088Y-1078636D01*
X4313529Y-1080262D01*
X4313377Y-1081633D01*
X4312869Y-1083157D01*
X4311599Y-1085342D01*
X4310888Y-1087170D01*
X4309618Y-1089304D01*
X4308906Y-1091082D01*
X4307636Y-1093165D01*
X4307484Y-1093927D01*
X4305858Y-1097178D01*
X4305300Y-1100175D01*
X4303877Y-1102563D01*
X4303318Y-1104341D01*
X4301947Y-1106525D01*
X4301337Y-1108252D01*
X4299966Y-1110488D01*
X4299356Y-1112215D01*
X4297984Y-1114450D01*
X4297121Y-1116533D01*
X4294327Y-1120038D01*
X4293463Y-1122070D01*
X4292092Y-1124305D01*
X4291787Y-1125270D01*
X4290923Y-1126744D01*
X4286758Y-1131570D01*
X4284726Y-1134922D01*
X4280458Y-1139647D01*
X4278223Y-1142441D01*
X4277461Y-1144016D01*
X4275582Y-1146302D01*
X4273042Y-1148740D01*
X4270908Y-1150366D01*
X4269638Y-1150924D01*
X4261154Y-1158189D01*
X4258970Y-1159103D01*
X4256836Y-1160424D01*
X4255008Y-1161084D01*
X4252874Y-1162354D01*
X4251096Y-1163066D01*
X4248912Y-1164336D01*
X4248200Y-1164488D01*
X4245254Y-1166114D01*
X4242257Y-1166672D01*
X4238498Y-1168298D01*
X4237126Y-1168450D01*
X4235551Y-1168958D01*
X4233367Y-1170330D01*
X4222750Y-1170330D01*
X4218838Y-1172565D01*
X4214977Y-1170330D01*
X4202328Y-1170330D01*
X4200093Y-1168908D01*
X4198112Y-1168450D01*
X4195775Y-1168298D01*
X4193794Y-1167790D01*
X4191508Y-1166672D01*
X4188510Y-1166114D01*
X4185615Y-1164488D01*
X4183786Y-1163828D01*
X4181652Y-1162558D01*
X4179824Y-1161846D01*
X4177690Y-1160576D01*
X4176928Y-1160424D01*
X4174794Y-1159103D01*
X4171746Y-1157732D01*
X4170426Y-1156563D01*
X4169664Y-1155242D01*
X4169562Y-1154582D01*
X4137202Y-1154633D01*
X4135882Y-1155750D01*
X4134662Y-1156462D01*
X4133850Y-1156614D01*
X4131157Y-1158240D01*
X4129430Y-1158798D01*
X4127246Y-1160170D01*
X4125468Y-1160780D01*
X4123283Y-1162151D01*
X4121251Y-1163015D01*
X4117746Y-1165809D01*
X4115663Y-1166672D01*
X4113428Y-1168095D01*
X4111701Y-1168654D01*
X4109262Y-1170076D01*
X4106265Y-1170635D01*
X4103522Y-1172006D01*
X4101795Y-1172616D01*
X4099407Y-1173988D01*
X4096410Y-1174597D01*
X4093667Y-1175969D01*
X4091940Y-1176528D01*
X4089552Y-1177950D01*
X4086555Y-1178509D01*
X4083354Y-1179931D01*
X4079951Y-1180236D01*
X4077970Y-1180744D01*
X4075429Y-1182065D01*
X4074668Y-1182217D01*
X4072534Y-1183538D01*
X4071061Y-1184046D01*
X4069638Y-1184198D01*
X4068013Y-1184757D01*
X4065828Y-1186078D01*
X4058970Y-1186129D01*
X4055973Y-1188059D01*
X4049115Y-1188110D01*
X4046118Y-1190040D01*
X4039362Y-1190040D01*
X4036161Y-1192022D01*
X3985564Y-1192022D01*
X3983736Y-1190752D01*
X3981196Y-1189685D01*
X3980332Y-1189075D01*
X3954729Y-1189075D01*
X3954729Y-1196644D01*
X3963924Y-1205839D01*
X3966362Y-1205890D01*
X3968089Y-1206449D01*
X3970274Y-1207770D01*
X3979113Y-1207820D01*
X3982059Y-1209751D01*
X4025950Y-1209751D01*
X4028897Y-1207820D01*
X4039717Y-1207770D01*
X4042714Y-1205839D01*
X4053535Y-1205788D01*
X4056481Y-1203858D01*
X4063390Y-1203858D01*
X4065574Y-1202486D01*
X4070096Y-1201267D01*
X4071569Y-1200454D01*
X4073550Y-1199946D01*
X4076954Y-1199642D01*
X4080154Y-1198219D01*
X4083100Y-1197660D01*
X4086860Y-1196035D01*
X4088231Y-1195882D01*
X4089806Y-1195374D01*
X4091178Y-1194612D01*
X4092752Y-1194054D01*
X4094124Y-1193901D01*
X4095699Y-1193393D01*
X4098188Y-1192123D01*
X4098899Y-1191971D01*
X4101084Y-1190650D01*
X4102557Y-1190142D01*
X4103979Y-1189990D01*
X4105554Y-1189431D01*
X4106926Y-1188669D01*
X4108500Y-1188161D01*
X4109923Y-1188008D01*
X4111498Y-1187450D01*
X4113428Y-1186383D01*
X4115155Y-1185824D01*
X4117340Y-1184452D01*
X4119067Y-1183843D01*
X4121251Y-1182471D01*
X4123029Y-1181862D01*
X4125214Y-1180490D01*
X4126941Y-1179880D01*
X4129176Y-1178509D01*
X4131208Y-1177645D01*
X4134662Y-1174851D01*
X4136796Y-1173988D01*
X4138980Y-1172616D01*
X4140758Y-1172006D01*
X4142994Y-1170635D01*
X4144975Y-1169822D01*
X4148074Y-1167231D01*
X4149750Y-1166418D01*
X4151274Y-1166215D01*
X4152493Y-1166368D01*
X4154017Y-1167485D01*
X4158437Y-1171498D01*
X4161078Y-1172870D01*
X4164584Y-1175664D01*
X4166615Y-1176528D01*
X4169359Y-1178153D01*
X4171137Y-1178814D01*
X4173270Y-1180134D01*
X4175099Y-1180795D01*
X4177182Y-1182116D01*
X4179062Y-1182776D01*
X4180382Y-1183538D01*
X4181957Y-1184046D01*
X4183329Y-1184198D01*
X4184904Y-1184757D01*
X4186275Y-1185519D01*
X4187850Y-1186027D01*
X4189222Y-1186180D01*
X4190796Y-1186738D01*
X4192981Y-1188059D01*
X4199890Y-1188110D01*
X4202836Y-1190040D01*
X4232910Y-1190040D01*
X4235196Y-1188618D01*
X4237177Y-1188161D01*
X4239463Y-1188008D01*
X4241444Y-1187500D01*
X4243984Y-1186383D01*
X4248404Y-1185875D01*
X4253687Y-1183538D01*
X4255770Y-1182268D01*
X4257598Y-1181557D01*
X4259732Y-1180287D01*
X4260494Y-1180134D01*
X4262628Y-1178814D01*
X4264456Y-1178153D01*
X4267149Y-1176528D01*
X4268012Y-1176274D01*
X4269486Y-1175410D01*
X4274312Y-1171194D01*
X4277004Y-1169568D01*
X4282948Y-1164082D01*
X4291279Y-1155750D01*
X4296867Y-1149705D01*
X4298899Y-1146403D01*
X4301490Y-1143050D01*
X4301794Y-1142085D01*
X4304995Y-1137869D01*
X4306163Y-1135430D01*
X4308957Y-1131925D01*
X4310126Y-1129538D01*
X4312869Y-1126032D01*
X4313783Y-1124000D01*
X4315155Y-1121816D01*
X4315714Y-1120038D01*
X4317136Y-1117854D01*
X4317695Y-1116126D01*
X4319066Y-1113942D01*
X4319676Y-1112164D01*
X4321048Y-1109980D01*
X4321657Y-1108202D01*
X4323029Y-1106068D01*
X4323638Y-1104290D01*
X4325010Y-1101598D01*
X4325569Y-1098600D01*
X4326991Y-1096213D01*
X4327550Y-1094435D01*
X4328922Y-1091742D01*
X4329531Y-1088796D01*
X4330903Y-1085799D01*
X4331512Y-1082852D01*
X4332884Y-1080414D01*
X4333798Y-1078077D01*
X4334560Y-1076756D01*
X4335068Y-1075131D01*
X4335221Y-1073607D01*
X4335932Y-1071981D01*
X4337964Y-1069644D01*
X4340707Y-1071778D01*
X4349089Y-1071778D01*
X4351426Y-1070457D01*
X4353560Y-1069848D01*
X4355795Y-1069543D01*
X4358487Y-1069594D01*
X4362297Y-1070152D01*
X4364939Y-1072642D01*
X4366361Y-1073607D01*
X4367326Y-1073912D01*
X4369003Y-1075029D01*
X4370781Y-1076706D01*
X4372152Y-1078484D01*
X4372711Y-1079804D01*
X4373880Y-1081582D01*
X4375404Y-1083360D01*
X4376369Y-1084884D01*
X4377131Y-1086866D01*
X4377893Y-1088034D01*
X4378452Y-1089558D01*
X4378502Y-1091946D01*
X4382465Y-1096467D01*
X4382516Y-1098804D01*
X4383074Y-1100429D01*
X4383836Y-1101801D01*
X4384344Y-1103376D01*
X4384497Y-1104747D01*
X4385818Y-1107795D01*
X4386326Y-1109776D01*
X4386478Y-1112113D01*
X4386935Y-1114094D01*
X4387799Y-1115720D01*
X4388307Y-1117701D01*
X4388459Y-1119987D01*
X4388916Y-1121968D01*
X4390339Y-1124254D01*
X4390339Y-1133144D01*
X4392320Y-1136091D01*
X4392320Y-1150874D01*
X4394250Y-1153820D01*
X4394301Y-1176883D01*
X4399534Y-1182166D01*
X4404766Y-1182166D01*
X4410049Y-1176883D01*
X4410049Y-1128217D01*
X4412030Y-1125270D01*
X4412030Y-1082852D01*
X4413961Y-1079957D01*
X4414012Y-1035659D01*
X4415942Y-1032510D01*
X4415993Y-1018895D01*
X4416298Y-1014018D01*
X4416552Y-1013256D01*
X4417415Y-1012850D01*
X4420158Y-1012342D01*
X4422851Y-1010970D01*
X4424629Y-1010412D01*
X4427220Y-1008938D01*
X4431741Y-1008481D01*
X4436973Y-1006144D01*
X4438142Y-1005382D01*
X4439615Y-1004824D01*
X4441037Y-1004671D01*
X4442612Y-1004163D01*
X4443984Y-1003401D01*
X4445558Y-1002893D01*
X4446981Y-1002741D01*
X4448556Y-1002182D01*
X4450994Y-1000912D01*
X4451705Y-1000760D01*
X4453890Y-999439D01*
X4455363Y-998931D01*
X4456785Y-998778D01*
X4458411Y-998270D01*
X4460849Y-996950D01*
X4462576Y-996289D01*
X4463745Y-995527D01*
X4465218Y-994968D01*
X4466640Y-994816D01*
X4468266Y-994308D01*
X4469638Y-993546D01*
X4471212Y-993038D01*
X4472584Y-992886D01*
X4474159Y-992327D01*
X4475530Y-991565D01*
X4477105Y-991057D01*
X4478477Y-990904D01*
X4483049Y-989076D01*
X4485792Y-988517D01*
X4487824Y-987653D01*
X4488484Y-987958D01*
X4488840Y-988923D01*
X4488992Y-990346D01*
X4489500Y-991971D01*
X4490262Y-993394D01*
X4490770Y-995070D01*
X4490872Y-997508D01*
X4496155Y-1002792D01*
X4503318Y-1002792D01*
X4509719Y-996442D01*
X4512208Y-993597D01*
X4514545Y-988923D01*
X4514799Y-988009D01*
X4516221Y-985316D01*
X4516780Y-982370D01*
X4518914Y-977646D01*
X4519980Y-976477D01*
X4521504Y-975563D01*
X4524603Y-974902D01*
X4527600Y-973531D01*
X4530547Y-972921D01*
X4533747Y-971499D01*
X4538167Y-970991D01*
X4541367Y-969568D01*
X4544314Y-969010D01*
X4547311Y-967587D01*
X4550257Y-967028D01*
X4553204Y-965657D01*
X4556150Y-965047D01*
X4559147Y-963676D01*
X4560722Y-963371D01*
X4562398Y-963371D01*
X4566107Y-959815D01*
X4567529Y-958037D01*
X4568037Y-956360D01*
X4568647Y-955344D01*
X4571339Y-957478D01*
X4580229Y-957478D01*
X4585462Y-952195D01*
X4585512Y-949807D01*
X4585817Y-948588D01*
X4586427Y-947978D01*
X4590440Y-947013D01*
X4591812Y-946251D01*
X4593386Y-945692D01*
X4594809Y-945540D01*
X4596384Y-945032D01*
X4598822Y-943762D01*
X4599533Y-943610D01*
X4601718Y-942289D01*
X4603191Y-941781D01*
X4604613Y-941628D01*
X4606239Y-941069D01*
X4607610Y-940308D01*
X4609185Y-939800D01*
X4610557Y-939647D01*
X4612132Y-939139D01*
X4614062Y-938021D01*
X4615789Y-937463D01*
X4618228Y-936091D01*
X4621174Y-935482D01*
X4624171Y-934110D01*
X4627118Y-933500D01*
X4630064Y-932129D01*
X4633010Y-931570D01*
X4635754Y-930148D01*
X4637481Y-929589D01*
X4639919Y-928166D01*
X4642866Y-927608D01*
X4645609Y-926236D01*
X4647336Y-925626D01*
X4649774Y-924255D01*
X4652721Y-923645D01*
X4655718Y-922274D01*
X4658664Y-921715D01*
X4661357Y-920292D01*
X4663084Y-919734D01*
X4665522Y-918311D01*
X4668469Y-917752D01*
X4671466Y-916381D01*
X4674412Y-915771D01*
X4677156Y-914400D01*
X4678883Y-913790D01*
X4681270Y-912418D01*
X4684268Y-911809D01*
X4687214Y-910437D01*
X4690211Y-909878D01*
X4695190Y-907592D01*
X4696358Y-906830D01*
X4697831Y-906271D01*
X4699203Y-906119D01*
X4700828Y-905611D01*
X4702200Y-904849D01*
X4705959Y-903935D01*
X4708702Y-902563D01*
X4710430Y-902004D01*
X4712817Y-900582D01*
X4715814Y-900023D01*
X4718761Y-898601D01*
X4721707Y-898042D01*
X4724958Y-896416D01*
X4726736Y-895756D01*
X4727854Y-894994D01*
X4732375Y-893775D01*
X4733747Y-893013D01*
X4735322Y-892505D01*
X4736693Y-892352D01*
X4742484Y-889863D01*
X4743653Y-889101D01*
X4745126Y-888542D01*
X4746548Y-888390D01*
X4751120Y-886561D01*
X4752492Y-886409D01*
X4754067Y-885901D01*
X4758283Y-883919D01*
X4759401Y-883158D01*
X4760874Y-882650D01*
X4762296Y-882497D01*
X4763922Y-881938D01*
X4765294Y-881176D01*
X4766868Y-880668D01*
X4768240Y-880516D01*
X4769815Y-880008D01*
X4771745Y-878890D01*
X4773472Y-878332D01*
X4775911Y-876960D01*
X4778857Y-876350D01*
X4781854Y-874979D01*
X4785614Y-874064D01*
X4788052Y-872794D01*
X4788763Y-872642D01*
X4790948Y-871321D01*
X4792421Y-870813D01*
X4793843Y-870661D01*
X4798415Y-868832D01*
X4799787Y-868680D01*
X4801362Y-868171D01*
X4807458Y-865124D01*
X4810404Y-864514D01*
X4813401Y-863142D01*
X4816348Y-862584D01*
X4819040Y-861161D01*
X4820818Y-860602D01*
X4823206Y-859180D01*
X4826203Y-858621D01*
X4828895Y-857250D01*
X4830673Y-856640D01*
X4833061Y-855268D01*
X4836820Y-854354D01*
X4838242Y-853592D01*
X4839817Y-853084D01*
X4841189Y-852932D01*
X4842764Y-852373D01*
X4844135Y-851611D01*
X4845710Y-851103D01*
X4847082Y-850950D01*
X4848656Y-850442D01*
X4850587Y-849325D01*
X4852314Y-848766D01*
X4854752Y-847394D01*
X4857699Y-846785D01*
X4860696Y-845413D01*
X4864455Y-844499D01*
X4866894Y-843229D01*
X4867605Y-843076D01*
X4869789Y-841756D01*
X4871262Y-841248D01*
X4872685Y-841095D01*
X4874310Y-840587D01*
X4875682Y-839825D01*
X4877257Y-839266D01*
X4878628Y-839114D01*
X4880203Y-838606D01*
X4886299Y-835558D01*
X4889246Y-834948D01*
X4892243Y-833577D01*
X4895189Y-832967D01*
X4897882Y-831596D01*
X4899660Y-831037D01*
X4902047Y-829614D01*
X4905044Y-829056D01*
X4907991Y-827684D01*
X4910937Y-827074D01*
X4913680Y-825703D01*
X4915408Y-825093D01*
X4917846Y-823721D01*
X4920792Y-823112D01*
X4923536Y-821740D01*
X4925263Y-821182D01*
X4927701Y-819759D01*
X4930648Y-819200D01*
X4933645Y-817829D01*
X4936591Y-817219D01*
X4939284Y-815848D01*
X4941011Y-815238D01*
X4943449Y-813866D01*
X4946396Y-813257D01*
X4949393Y-811885D01*
X4952339Y-811326D01*
X4955286Y-809904D01*
X4958283Y-809345D01*
X4961483Y-807720D01*
X4963261Y-807059D01*
X4964379Y-806297D01*
X4968900Y-805078D01*
X4970272Y-804316D01*
X4971846Y-803808D01*
X4973218Y-803656D01*
X4979009Y-801166D01*
X4980178Y-800354D01*
X4981651Y-799846D01*
X4983073Y-799693D01*
X4984648Y-799185D01*
X4987137Y-797864D01*
X4988864Y-797204D01*
X4990033Y-796442D01*
X4991506Y-795934D01*
X4993741Y-795528D01*
X4996738Y-794156D01*
X4999888Y-793496D01*
X5001615Y-792327D01*
X5002834Y-790956D01*
X5003749Y-788771D01*
X5006187Y-785774D01*
X5008880Y-787958D01*
X5017617Y-787958D01*
X5020005Y-785774D01*
X5020970Y-784504D01*
X5021681Y-782421D01*
X5022494Y-780999D01*
X5023002Y-779018D01*
X5023053Y-775462D01*
X5015839Y-768248D01*
X5012283Y-768299D01*
X5010302Y-768807D01*
X5007660Y-770128D01*
X5006797Y-770331D01*
X5005527Y-771296D01*
X5003342Y-773684D01*
X5003292Y-777341D01*
X5003038Y-779068D01*
X5002428Y-780237D01*
X4997958Y-776122D01*
X4994503Y-776173D01*
X4992573Y-776681D01*
X4989982Y-778002D01*
X4989271Y-778154D01*
X4986375Y-779780D01*
X4983429Y-780338D01*
X4978400Y-782624D01*
X4977231Y-783386D01*
X4975758Y-783945D01*
X4974336Y-784098D01*
X4972761Y-784606D01*
X4967986Y-786942D01*
X4966919Y-787654D01*
X4965141Y-788263D01*
X4962956Y-789635D01*
X4961229Y-790194D01*
X4958791Y-791616D01*
X4955794Y-792175D01*
X4953101Y-793546D01*
X4951323Y-794156D01*
X4948936Y-795528D01*
X4945938Y-796137D01*
X4943246Y-797509D01*
X4941468Y-798118D01*
X4939080Y-799490D01*
X4936083Y-800049D01*
X4932324Y-801674D01*
X4930952Y-801827D01*
X4929378Y-802335D01*
X4923282Y-805383D01*
X4920335Y-805992D01*
X4917592Y-807364D01*
X4915865Y-807974D01*
X4913426Y-809345D01*
X4910480Y-809904D01*
X4907737Y-811326D01*
X4906010Y-811885D01*
X4903571Y-813308D01*
X4900625Y-813866D01*
X4897882Y-815238D01*
X4896154Y-815848D01*
X4893716Y-817219D01*
X4890770Y-817829D01*
X4887772Y-819200D01*
X4884826Y-819759D01*
X4882134Y-821182D01*
X4880406Y-821740D01*
X4877968Y-823163D01*
X4875022Y-823721D01*
X4872024Y-825093D01*
X4869078Y-825703D01*
X4866335Y-827074D01*
X4864608Y-827684D01*
X4862220Y-829056D01*
X4859223Y-829614D01*
X4856276Y-831037D01*
X4853279Y-831596D01*
X4850079Y-833221D01*
X4848301Y-833882D01*
X4847183Y-834644D01*
X4845659Y-835202D01*
X4844288Y-835355D01*
X4842662Y-835863D01*
X4840224Y-837133D01*
X4839462Y-837285D01*
X4837328Y-838606D01*
X4835804Y-839114D01*
X4834432Y-839266D01*
X4832807Y-839825D01*
X4831435Y-840587D01*
X4829860Y-841095D01*
X4828489Y-841248D01*
X4826863Y-841756D01*
X4824425Y-843076D01*
X4822698Y-843737D01*
X4821529Y-844499D01*
X4820056Y-845058D01*
X4818634Y-845210D01*
X4817059Y-845718D01*
X4815636Y-846480D01*
X4814062Y-846988D01*
X4812690Y-847140D01*
X4811115Y-847699D01*
X4809744Y-848461D01*
X4808169Y-848969D01*
X4806797Y-849121D01*
X4801006Y-851611D01*
X4799838Y-852373D01*
X4798364Y-852932D01*
X4796942Y-853084D01*
X4795367Y-853592D01*
X4793945Y-854354D01*
X4789424Y-855573D01*
X4785207Y-857554D01*
X4784090Y-858316D01*
X4782616Y-858824D01*
X4781194Y-858977D01*
X4779568Y-859536D01*
X4777130Y-860806D01*
X4775352Y-861466D01*
X4774234Y-862228D01*
X4772761Y-862787D01*
X4771339Y-862939D01*
X4769713Y-863447D01*
X4768342Y-864209D01*
X4763820Y-865428D01*
X4762449Y-866190D01*
X4760874Y-866698D01*
X4759452Y-866851D01*
X4757877Y-867410D01*
X4755438Y-868680D01*
X4754727Y-868832D01*
X4752543Y-870153D01*
X4751070Y-870661D01*
X4749647Y-870813D01*
X4748072Y-871321D01*
X4745583Y-872642D01*
X4743856Y-873302D01*
X4742688Y-874064D01*
X4741214Y-874623D01*
X4739792Y-874776D01*
X4738217Y-875284D01*
X4736795Y-876046D01*
X4735220Y-876553D01*
X4733848Y-876706D01*
X4732274Y-877265D01*
X4729835Y-878535D01*
X4729073Y-878687D01*
X4726940Y-880008D01*
X4725416Y-880516D01*
X4724044Y-880668D01*
X4722418Y-881176D01*
X4721047Y-881938D01*
X4719472Y-882497D01*
X4718100Y-882650D01*
X4716526Y-883158D01*
X4715103Y-883919D01*
X4710582Y-885139D01*
X4706366Y-887120D01*
X4705248Y-887882D01*
X4703775Y-888390D01*
X4702352Y-888542D01*
X4700727Y-889101D01*
X4699355Y-889863D01*
X4697780Y-890371D01*
X4696409Y-890524D01*
X4694834Y-891032D01*
X4692345Y-892352D01*
X4690618Y-893013D01*
X4689449Y-893775D01*
X4687976Y-894334D01*
X4686604Y-894486D01*
X4684979Y-894994D01*
X4682490Y-896264D01*
X4681778Y-896416D01*
X4679594Y-897737D01*
X4678121Y-898245D01*
X4676749Y-898398D01*
X4675124Y-898956D01*
X4673752Y-899718D01*
X4672177Y-900226D01*
X4670755Y-900379D01*
X4669180Y-900887D01*
X4665522Y-902563D01*
X4663135Y-903935D01*
X4660138Y-904544D01*
X4657191Y-905916D01*
X4654245Y-906526D01*
X4651502Y-907897D01*
X4649774Y-908456D01*
X4647336Y-909878D01*
X4644390Y-910437D01*
X4641392Y-911860D01*
X4638446Y-912418D01*
X4633468Y-914704D01*
X4632299Y-915466D01*
X4630826Y-915974D01*
X4629404Y-916127D01*
X4624832Y-917956D01*
X4623460Y-918108D01*
X4621885Y-918667D01*
X4619447Y-919937D01*
X4617669Y-920597D01*
X4616551Y-921359D01*
X4615078Y-921918D01*
X4613656Y-922070D01*
X4612030Y-922578D01*
X4610658Y-923340D01*
X4609084Y-923899D01*
X4607712Y-924052D01*
X4606137Y-924560D01*
X4604766Y-925321D01*
X4603191Y-925830D01*
X4601768Y-925982D01*
X4600194Y-926541D01*
X4597755Y-927811D01*
X4597044Y-927963D01*
X4594860Y-929284D01*
X4593386Y-929792D01*
X4591964Y-929944D01*
X4590338Y-930452D01*
X4587900Y-931773D01*
X4586173Y-932434D01*
X4585004Y-933196D01*
X4583531Y-933754D01*
X4582109Y-933907D01*
X4580483Y-934415D01*
X4579112Y-935177D01*
X4577537Y-935685D01*
X4576165Y-935837D01*
X4574590Y-936396D01*
X4572152Y-937666D01*
X4571390Y-937818D01*
X4569256Y-939139D01*
X4567732Y-939647D01*
X4566361Y-939800D01*
X4564735Y-940308D01*
X4563364Y-941069D01*
X4561789Y-941628D01*
X4560417Y-941781D01*
X4558842Y-942289D01*
X4556353Y-943559D01*
X4555134Y-943965D01*
X4552746Y-945337D01*
X4548987Y-946251D01*
X4547565Y-947013D01*
X4545990Y-947521D01*
X4544618Y-947674D01*
X4543044Y-948232D01*
X4541672Y-948994D01*
X4540097Y-949502D01*
X4538726Y-949655D01*
X4537151Y-950163D01*
X4535220Y-951280D01*
X4533087Y-952042D01*
X4532122Y-952703D01*
X4526686Y-954278D01*
X4525873Y-954938D01*
X4525314Y-954938D01*
X4524908Y-954582D01*
X4524908Y-954024D01*
X4525670Y-953058D01*
X4527092Y-945896D01*
X4527804Y-944473D01*
X4528261Y-942594D01*
X4528362Y-940308D01*
X4528870Y-938326D01*
X4529683Y-936802D01*
X4530191Y-935228D01*
X4530344Y-933856D01*
X4530902Y-932281D01*
X4532274Y-930097D01*
X4532274Y-917448D01*
X4528921Y-914095D01*
X4521758Y-914095D01*
X4516475Y-919378D01*
X4516424Y-921816D01*
X4514748Y-925931D01*
X4514291Y-930351D01*
X4513122Y-932891D01*
X4512614Y-934872D01*
X4512462Y-937209D01*
X4512005Y-939190D01*
X4511141Y-940765D01*
X4510633Y-942746D01*
X4510328Y-946150D01*
X4508855Y-949604D01*
X4508550Y-952957D01*
X4508042Y-954938D01*
X4507230Y-956462D01*
X4506722Y-958087D01*
X4506569Y-959612D01*
X4505858Y-961186D01*
X4504639Y-962558D01*
X4503623Y-963218D01*
X4503267Y-963168D01*
X4502810Y-960577D01*
X4502708Y-942898D01*
X4503572Y-942035D01*
X4505147Y-941578D01*
X4506417Y-940612D01*
X4508601Y-938225D01*
X4508601Y-931418D01*
X4504690Y-926846D01*
X4504740Y-922680D01*
X4505198Y-920597D01*
X4506569Y-917498D01*
X4506722Y-916127D01*
X4507230Y-914552D01*
X4508042Y-913028D01*
X4508550Y-911098D01*
X4508855Y-907694D01*
X4510328Y-904240D01*
X4510633Y-900836D01*
X4511141Y-898906D01*
X4511954Y-897382D01*
X4512462Y-895807D01*
X4512614Y-894435D01*
X4513173Y-892860D01*
X4514494Y-890676D01*
X4514545Y-883818D01*
X4516475Y-880821D01*
X4516475Y-873963D01*
X4518456Y-870966D01*
X4518456Y-864057D01*
X4520438Y-861110D01*
X4520438Y-854202D01*
X4522419Y-851255D01*
X4522419Y-842416D01*
X4524349Y-839419D01*
X4524400Y-830580D01*
X4526330Y-827633D01*
X4526330Y-814832D01*
X4528312Y-811834D01*
X4528312Y-797560D01*
X4526940Y-795426D01*
X4526127Y-793292D01*
X4524705Y-791514D01*
X4520996Y-787958D01*
X4513834Y-787958D01*
X4506620Y-795172D01*
X4506569Y-797610D01*
X4506010Y-799338D01*
X4505248Y-800709D01*
X4504740Y-802284D01*
X4504588Y-803656D01*
X4504080Y-805230D01*
X4502708Y-807415D01*
X4502708Y-814324D01*
X4500727Y-817270D01*
X4500727Y-824179D01*
X4498746Y-827125D01*
X4498746Y-834034D01*
X4496765Y-836980D01*
X4496765Y-849782D01*
X4494834Y-852728D01*
X4494784Y-869492D01*
X4492853Y-872439D01*
X4492853Y-889203D01*
X4490872Y-892149D01*
X4490872Y-916838D01*
X4490262Y-917448D01*
X4488434Y-917905D01*
X4478375Y-918057D01*
X4470654Y-925779D01*
X4467656Y-929132D01*
X4465523Y-933043D01*
X4465116Y-934567D01*
X4464304Y-935990D01*
X4456023Y-927912D01*
X4445101Y-927912D01*
X4441850Y-930656D01*
X4440224Y-931671D01*
X4439158Y-932027D01*
X4437329Y-933450D01*
X4435297Y-935532D01*
X4433925Y-937361D01*
X4433570Y-938428D01*
X4429912Y-943305D01*
X4429709Y-944168D01*
X4428388Y-946302D01*
X4427524Y-948639D01*
X4441799Y-948639D01*
X4441850Y-947623D01*
X4442714Y-945692D01*
X4445508Y-943559D01*
X4448302Y-942187D01*
X4448759Y-942543D01*
X4449318Y-944676D01*
X4446422Y-947724D01*
X4444542Y-949198D01*
X4442409Y-950112D01*
X4441850Y-949147D01*
X4441799Y-948639D01*
X4427524Y-948639D01*
X4426102Y-950823D01*
X4425797Y-951788D01*
X4424934Y-953262D01*
X4420768Y-958087D01*
X4419904Y-959459D01*
X4419396Y-960932D01*
X4418939Y-961644D01*
X4418228Y-960272D01*
X4417974Y-957376D01*
X4417923Y-950925D01*
X4412640Y-945642D01*
X4405884Y-945642D01*
X4403750Y-947013D01*
X4401159Y-948080D01*
X4399788Y-949248D01*
X4398670Y-950620D01*
X4397959Y-952550D01*
X4396333Y-955243D01*
X4395673Y-957071D01*
X4394555Y-958697D01*
X4393996Y-960424D01*
X4392625Y-962609D01*
X4392015Y-964336D01*
X4390644Y-967079D01*
X4441596Y-967130D01*
X4442002Y-966114D01*
X4443018Y-964793D01*
X4444492Y-963371D01*
X4447946Y-963371D01*
X4456480Y-955497D01*
X4456734Y-955700D01*
X4456887Y-956259D01*
X4456379Y-957275D01*
X4454448Y-959358D01*
X4453534Y-960780D01*
X4452874Y-962914D01*
X4451451Y-965301D01*
X4450994Y-966571D01*
X4449622Y-968349D01*
X4447692Y-970127D01*
X4445914Y-971143D01*
X4443831Y-971245D01*
X4442256Y-968908D01*
X4441596Y-967130D01*
X4390630Y-967130D01*
X4390186Y-969822D01*
X4389374Y-971499D01*
X4388662Y-970381D01*
X4388307Y-967841D01*
X4387748Y-966266D01*
X4386478Y-963726D01*
X4386275Y-962863D01*
X4385310Y-961644D01*
X4382922Y-959459D01*
X4377842Y-959459D01*
X4370628Y-966673D01*
X4370628Y-977900D01*
X4368647Y-980846D01*
X4368647Y-993190D01*
X4417872Y-993190D01*
X4418177Y-987552D01*
X4422140Y-983487D01*
X4423613Y-981557D01*
X4424629Y-979322D01*
X4426153Y-977595D01*
X4426864Y-977188D01*
X4428845Y-980541D01*
X4431436Y-983437D01*
X4434128Y-985977D01*
X4435652Y-987044D01*
X4437176Y-987552D01*
X4437888Y-988009D01*
X4436770Y-988669D01*
X4434230Y-989076D01*
X4432655Y-989584D01*
X4431284Y-990346D01*
X4429709Y-990904D01*
X4428337Y-991057D01*
X4426762Y-991565D01*
X4422546Y-993546D01*
X4421428Y-994308D01*
X4420209Y-994816D01*
X4419244Y-994867D01*
X4418431Y-994613D01*
X4417974Y-994003D01*
X4417872Y-993190D01*
X4368647Y-993190D01*
X4368647Y-999083D01*
X4370019Y-1001268D01*
X4370527Y-1002944D01*
X4370628Y-1005281D01*
X4373422Y-1008380D01*
X4374438Y-1010158D01*
X4374489Y-1011326D01*
X4374083Y-1012139D01*
X4373321Y-1012494D01*
X4369612Y-1012698D01*
X4367733Y-1013206D01*
X4365142Y-1014526D01*
X4364431Y-1014679D01*
X4362297Y-1016000D01*
X4360824Y-1016508D01*
X4359452Y-1016660D01*
X4357827Y-1017168D01*
X4356404Y-1017930D01*
X4354677Y-1018489D01*
X4351883Y-1018540D01*
X4351528Y-1018387D01*
X4351070Y-1017117D01*
X4350918Y-1009954D01*
X4352899Y-1007008D01*
X4352899Y-1000099D01*
X4354880Y-997153D01*
X4354880Y-986282D01*
X4356811Y-983335D01*
X4356862Y-972515D01*
X4358792Y-969518D01*
X4358792Y-960678D01*
X4360773Y-957732D01*
X4360773Y-940968D01*
X4362754Y-938021D01*
X4362754Y-925169D01*
X4364685Y-922223D01*
X4364736Y-905459D01*
X4366666Y-902512D01*
X4366717Y-885748D01*
X4368647Y-882802D01*
X4368647Y-864057D01*
X4370628Y-861110D01*
X4370628Y-844346D01*
X4372610Y-841400D01*
X4372610Y-828598D01*
X4374540Y-825652D01*
X4374591Y-816762D01*
X4376521Y-813816D01*
X4376572Y-806907D01*
X4377944Y-804621D01*
X4378452Y-802640D01*
X4378604Y-800354D01*
X4379061Y-798372D01*
X4379925Y-796747D01*
X4380433Y-794766D01*
X4380788Y-790905D01*
X4381449Y-789686D01*
X4382160Y-790752D01*
X4382516Y-792175D01*
X4384141Y-795070D01*
X4384700Y-798017D01*
X4386122Y-801014D01*
X4386681Y-803960D01*
X4388053Y-806907D01*
X4388662Y-809853D01*
X4390085Y-813104D01*
X4390390Y-816457D01*
X4390898Y-818438D01*
X4392320Y-820724D01*
X4392320Y-827633D01*
X4394250Y-830580D01*
X4394301Y-841400D01*
X4396232Y-844346D01*
X4396282Y-859129D01*
X4398213Y-862126D01*
X4398213Y-874928D01*
X4399584Y-877062D01*
X4400346Y-879144D01*
X4401261Y-880364D01*
X4403699Y-882548D01*
X4410710Y-882548D01*
X4415942Y-877316D01*
X4415942Y-842873D01*
X4414012Y-839927D01*
X4414012Y-825144D01*
X4412030Y-822198D01*
X4412030Y-815289D01*
X4410049Y-812342D01*
X4410049Y-805434D01*
X4408678Y-803249D01*
X4408170Y-801674D01*
X4408017Y-800303D01*
X4407458Y-798728D01*
X4406646Y-797255D01*
X4406188Y-795274D01*
X4406036Y-792937D01*
X4405528Y-790956D01*
X4404207Y-787857D01*
X4404156Y-785571D01*
X4401413Y-782320D01*
X4400346Y-780694D01*
X4400143Y-779830D01*
X4398822Y-777697D01*
X4397806Y-775411D01*
X4394809Y-772007D01*
X4387037Y-764286D01*
G37*
D10*
X5870765Y-2713385D02*
G01*
X5710080Y-2552700D01*
X5673394Y-2552700D01*
X5663387Y-2492705D02*
G01*
X5816600Y-2492705D01*
X5219700Y-2482697D02*
G01*
X3448202Y-2482697D01*
X2582387Y-3348512D01*
X2582387Y-4094081D01*
X4839563Y-2628900D02*
G01*
X3845534Y-2628900D01*
X2802402Y-3672032D01*
X2802402Y-4094081D01*
X5058511Y-2628900D02*
G01*
X5064709Y-2622702D01*
X5219700Y-2622702D01*
X5219700Y-2482697D02*
G01*
X5292674Y-2482697D01*
X5613400Y-2492705D02*
G01*
X5613400Y-2444724D01*
X5613400Y-2444724D02*
G01*
X5601487Y-2432812D01*
X5342559Y-2432812D01*
X5292674Y-2482697D01*
X4990236Y-2628900D02*
G01*
X5058511Y-2628900D01*
X5613400Y-2612694D02*
G01*
X5613400Y-2660650D01*
X5613400Y-2660650D02*
G01*
X5612663Y-2661386D01*
X5331358Y-2661386D01*
X5292674Y-2622702D01*
X5613400Y-2612694D02*
G01*
X5663387Y-2612694D01*
X5219700Y-2622702D02*
G01*
X5292674Y-2622702D01*
D11*
X5870282Y-2712445D02*
G01*
X5882982Y-2712445D01*
X5949988Y-2712445D01*
X5966498Y-2728955D01*
X5966498Y-4778938D01*
X6206477Y-518952D02*
G01*
X6206477Y-2568935D01*
X6222987Y-2585445D01*
X6263982Y-2585445D01*
X6026492Y-4778938D02*
G01*
X6026492Y-2708940D01*
X5966498Y-2648945D01*
X5966498Y-518952D01*
X6146482Y-4778938D02*
G01*
X6146482Y-2668935D01*
X6086487Y-2608940D01*
X6086487Y-518952D01*
X6086487Y-4778938D02*
G01*
X6086487Y-2688950D01*
X6026492Y-2628955D01*
X6026492Y-518952D01*
X6206477Y-4778938D02*
G01*
X6206477Y-2648945D01*
X6146482Y-2588950D01*
X6146482Y-518952D01*
X6236500Y-248950D02*
G01*
X8196491Y-248950D01*
X6236500Y-308945D02*
G01*
X8196491Y-308945D01*
X6236500Y-368940D02*
G01*
X8196491Y-368940D01*
X6236500Y-428960D02*
G01*
X8196491Y-428960D01*
X6236500Y-488955D02*
G01*
X8196491Y-488955D01*
X6236500Y-5048940D02*
G01*
X8196491Y-5048940D01*
X6236500Y-4988946D02*
G01*
X8196491Y-4988946D01*
X6236500Y-4928951D02*
G01*
X8196491Y-4928951D01*
X6236500Y-4868931D02*
G01*
X8196491Y-4868931D01*
X6236500Y-4808936D02*
G01*
X8196491Y-4808936D01*
X8466493Y-4778938D02*
G01*
X8466493Y-518952D01*
X8406472Y-4778938D02*
G01*
X8406472Y-518952D01*
X8346478Y-4778938D02*
G01*
X8346478Y-518952D01*
X8286483Y-4778938D02*
G01*
X8286483Y-518952D01*
X8226488Y-4778938D02*
G01*
X8226488Y-518952D01*
D12*
G01*
X2802402Y-4094081D03*
G01*
X2582387Y-4094081D03*
D13*
G01*
X5870765Y-2713385D03*
G01*
X6264186Y-2585547D03*
D14*
G01*
X5219700Y-2622702D03*
G01*
X5219700Y-2482697D03*
D15*
G01*
X4839575Y-2628900D03*
G01*
X4990224Y-2628900D03*
D16*
G01*
X5673394Y-2552700D03*
D17*
G01*
X5663387Y-2612694D03*
G01*
X5613400Y-2612694D03*
G01*
X5563387Y-2612694D03*
D16*
G01*
X5553405Y-2552700D03*
D17*
G01*
X5563412Y-2492705D03*
G01*
X5613400Y-2492705D03*
D18*
G01*
X5663387Y-2492705D03*
D11*
G75*
G01*
X8466493Y-518952D02*
G03*
X8196491Y-248950I-270002J0D01*
G75*
G01*
X8406473Y-518952D02*
G03*
X8196491Y-308945I-210007J0D01*
G75*
G01*
X8346478Y-518952D02*
G03*
X8196491Y-368940I-149987J25D01*
G75*
G01*
X8286483Y-518952D02*
G03*
X8196491Y-428960I-89992J0D01*
G75*
G01*
X8226488Y-518952D02*
G03*
X8196491Y-488955I-29997J0D01*
G75*
G01*
X8466493Y-4778939D02*
G02*
X8196491Y-5048941I-270002J0D01*
G75*
G01*
X8406473Y-4778939D02*
G02*
X8196491Y-4988946I-210007J0D01*
G75*
G01*
X8346478Y-4778939D02*
G02*
X8196491Y-4928951I-149987J-25D01*
G75*
G01*
X8286483Y-4778939D02*
G02*
X8196491Y-4868931I-89992J0D01*
G75*
G01*
X8226488Y-4778939D02*
G02*
X8196491Y-4808936I-29997J0D01*
G75*
G01*
X5966498Y-4778939D02*
G03*
X6236500Y-5048941I270002J0D01*
G75*
G01*
X6026493Y-4778939D02*
G03*
X6236500Y-4988946I210007J0D01*
G75*
G01*
X6086488Y-4778939D02*
G03*
X6236500Y-4928951I149987J-25D01*
G75*
G01*
X6146483Y-4778939D02*
G03*
X6236500Y-4868931I89992J0D01*
G75*
G01*
X6206477Y-4778939D02*
G03*
X6236500Y-4808936I29998J0D01*
G75*
G01*
X5966498Y-518952D02*
G02*
X6236500Y-248950I270002J0D01*
G75*
G01*
X6026493Y-518952D02*
G02*
X6236500Y-308945I210007J0D01*
G75*
G01*
X6086488Y-518952D02*
G02*
X6236500Y-368940I149987J25D01*
G75*
G01*
X6146483Y-518952D02*
G02*
X6236500Y-428960I89992J0D01*
G75*
G01*
X6206477Y-518952D02*
G02*
X6236500Y-488955I29998J0D01*
D19*
G01*
X6263982Y-2585445D03*
G01*
X5816600Y-2492705D03*
M02*
